<svg width="186" height="181" viewBox="0 0 186 181" fill="none" xmlns="http://www.w3.org/2000/svg">
<circle cx="94.5" cy="89.5" r="65.5" fill="#6191FF"/>
<path d="M39.2028 124.267C32.4381 113.219 29.1014 100.413 29.6147 87.4682C30.1281 74.5237 34.4684 62.0221 42.0868 51.5443C49.7052 41.0666 60.2595 33.0832 72.4151 28.6038C84.5707 24.1244 97.7816 23.3502 110.377 26.379L95.0633 90.0637L39.2028 124.267Z" fill="#F6665C"/>
<g filter="url(#filter0_d_357_5)">
<circle cx="29" cy="41" r="25" fill="white"/>
</g>
<g filter="url(#filter1_d_357_5)">
<circle cx="145" cy="141" r="25" fill="white"/>
</g>
<path d="M9.39915 49V47.4091L14.321 42.3097C14.8466 41.7557 15.2798 41.2704 15.6207 40.8537C15.9664 40.4323 16.2244 40.0322 16.3949 39.6534C16.5653 39.2746 16.6506 38.8722 16.6506 38.446C16.6506 37.9631 16.5369 37.5464 16.3097 37.196C16.0824 36.8409 15.7723 36.5687 15.3793 36.3793C14.9863 36.1851 14.5436 36.0881 14.0511 36.0881C13.5303 36.0881 13.0758 36.1946 12.6875 36.4077C12.2992 36.6207 12.0009 36.9214 11.7926 37.3097C11.5843 37.6979 11.4801 38.1525 11.4801 38.6733H9.38494C9.38494 37.7879 9.58854 37.0137 9.99574 36.3509C10.4029 35.688 10.9616 35.1742 11.6719 34.8097C12.3821 34.4403 13.1894 34.2557 14.0938 34.2557C15.0076 34.2557 15.8125 34.438 16.5085 34.8026C17.2093 35.1624 17.7562 35.6548 18.1491 36.2798C18.5421 36.9001 18.7386 37.6009 18.7386 38.3821C18.7386 38.9219 18.6368 39.4498 18.4332 39.9659C18.2344 40.482 17.8864 41.0573 17.3892 41.6918C16.892 42.3215 16.2008 43.0862 15.3153 43.9858L12.4247 47.0114V47.1179H18.973V49H9.39915ZM26.4659 49.1989C25.5758 49.1989 24.7756 49.0284 24.0653 48.6875C23.3598 48.3419 22.7964 47.8684 22.375 47.267C21.9536 46.6657 21.7287 45.9792 21.7003 45.2074H23.831C23.883 45.8324 24.16 46.3461 24.6619 46.7486C25.1638 47.151 25.7652 47.3523 26.4659 47.3523C27.0246 47.3523 27.5194 47.2244 27.9503 46.9688C28.3859 46.7083 28.7268 46.3509 28.973 45.8963C29.224 45.4418 29.3494 44.9233 29.3494 44.3409C29.3494 43.7491 29.2216 43.2211 28.9659 42.7571C28.7102 42.2931 28.3575 41.9285 27.9077 41.6634C27.4626 41.3982 26.9512 41.2633 26.3736 41.2585C25.9332 41.2585 25.4905 41.3343 25.0455 41.4858C24.6004 41.6373 24.2405 41.8362 23.9659 42.0824L21.956 41.7841L22.7727 34.4545H30.7699V36.3366H24.598L24.1364 40.4062H24.2216C24.5057 40.1316 24.8821 39.902 25.3509 39.7173C25.8243 39.5327 26.331 39.4403 26.8707 39.4403C27.7562 39.4403 28.5445 39.651 29.2358 40.0724C29.9318 40.4938 30.4787 41.0691 30.8764 41.7983C31.2789 42.5227 31.4777 43.3561 31.473 44.2983C31.4777 45.2405 31.2647 46.081 30.8338 46.8196C30.4077 47.5582 29.8158 48.1406 29.0582 48.5668C28.3054 48.9882 27.4413 49.1989 26.4659 49.1989ZM41.6594 46.2727V45.5057C41.6594 44.9564 41.7731 44.4545 42.0004 44C42.2324 43.5407 42.5685 43.1738 43.0089 42.8991C43.454 42.6198 43.9914 42.4801 44.6211 42.4801C45.265 42.4801 45.8048 42.6174 46.2404 42.892C46.676 43.1667 47.0051 43.5336 47.2276 43.9929C47.4549 44.4522 47.5685 44.9564 47.5685 45.5057V46.2727C47.5685 46.822 47.4549 47.3262 47.2276 47.7855C47.0004 48.2401 46.6665 48.607 46.2262 48.8864C45.7906 49.161 45.2556 49.2983 44.6211 49.2983C43.9819 49.2983 43.4421 49.161 43.0018 48.8864C42.5614 48.607 42.2276 48.2401 42.0004 47.7855C41.7731 47.3262 41.6594 46.822 41.6594 46.2727ZM43.3143 45.5057V46.2727C43.3143 46.6799 43.4113 47.0492 43.6055 47.3807C43.7996 47.7121 44.1381 47.8778 44.6211 47.8778C45.0993 47.8778 45.4331 47.7121 45.6225 47.3807C45.8119 47.0492 45.9066 46.6799 45.9066 46.2727V45.5057C45.9066 45.0985 45.8143 44.7292 45.6296 44.3977C45.4497 44.0663 45.1135 43.9006 44.6211 43.9006C44.1476 43.9006 43.8114 44.0663 43.6126 44.3977C43.4137 44.7292 43.3143 45.0985 43.3143 45.5057ZM34.3441 37.9489V37.1818C34.3441 36.6326 34.4577 36.1283 34.685 35.669C34.917 35.2098 35.2532 34.8428 35.6935 34.5682C36.1386 34.2936 36.676 34.1562 37.3058 34.1562C37.9497 34.1562 38.4895 34.2936 38.9251 34.5682C39.3607 34.8428 39.6897 35.2098 39.9123 35.669C40.1348 36.1283 40.2461 36.6326 40.2461 37.1818V37.9489C40.2461 38.4981 40.1325 39.0024 39.9052 39.4616C39.6826 39.9162 39.3512 40.2831 38.9109 40.5625C38.4753 40.8371 37.9402 40.9744 37.3058 40.9744C36.6618 40.9744 36.1197 40.8371 35.6793 40.5625C35.2437 40.2831 34.9123 39.9162 34.685 39.4616C34.4577 39.0024 34.3441 38.4981 34.3441 37.9489ZM36.006 37.1818V37.9489C36.006 38.3561 36.1007 38.7254 36.2901 39.0568C36.4843 39.3883 36.8228 39.554 37.3058 39.554C37.7792 39.554 38.1107 39.3883 38.3001 39.0568C38.4942 38.7254 38.5913 38.3561 38.5913 37.9489V37.1818C38.5913 36.7746 38.4989 36.4053 38.3143 36.0739C38.1296 35.7424 37.7934 35.5767 37.3058 35.5767C36.8323 35.5767 36.4961 35.7424 36.2972 36.0739C36.1031 36.4053 36.006 36.7746 36.006 37.1818ZM35.0188 49L45.0188 34.4545H46.7163L36.7163 49H35.0188Z" fill="#182E67"/>
<path d="M126.889 149L133.239 136.443V136.337H125.895V134.455H135.511V136.401L129.183 149H126.889ZM142.587 149.199C141.697 149.199 140.897 149.028 140.186 148.688C139.481 148.342 138.917 147.868 138.496 147.267C138.075 146.666 137.85 145.979 137.821 145.207H139.952C140.004 145.832 140.281 146.346 140.783 146.749C141.285 147.151 141.886 147.352 142.587 147.352C143.146 147.352 143.641 147.224 144.071 146.969C144.507 146.708 144.848 146.351 145.094 145.896C145.345 145.442 145.471 144.923 145.471 144.341C145.471 143.749 145.343 143.221 145.087 142.757C144.831 142.293 144.479 141.929 144.029 141.663C143.584 141.398 143.072 141.263 142.495 141.259C142.054 141.259 141.612 141.334 141.167 141.486C140.721 141.637 140.362 141.836 140.087 142.082L138.077 141.784L138.894 134.455H146.891V136.337H140.719L140.257 140.406H140.343C140.627 140.132 141.003 139.902 141.472 139.717C141.945 139.533 142.452 139.44 142.992 139.44C143.877 139.44 144.666 139.651 145.357 140.072C146.053 140.494 146.6 141.069 146.998 141.798C147.4 142.523 147.599 143.356 147.594 144.298C147.599 145.241 147.386 146.081 146.955 146.82C146.529 147.558 145.937 148.141 145.179 148.567C144.426 148.988 143.562 149.199 142.587 149.199ZM157.781 146.273V145.506C157.781 144.956 157.894 144.455 158.121 144C158.353 143.541 158.69 143.174 159.13 142.899C159.575 142.62 160.112 142.48 160.742 142.48C161.386 142.48 161.926 142.617 162.362 142.892C162.797 143.167 163.126 143.534 163.349 143.993C163.576 144.452 163.69 144.956 163.69 145.506V146.273C163.69 146.822 163.576 147.326 163.349 147.786C163.121 148.24 162.788 148.607 162.347 148.886C161.912 149.161 161.377 149.298 160.742 149.298C160.103 149.298 159.563 149.161 159.123 148.886C158.683 148.607 158.349 148.24 158.121 147.786C157.894 147.326 157.781 146.822 157.781 146.273ZM159.435 145.506V146.273C159.435 146.68 159.532 147.049 159.727 147.381C159.921 147.712 160.259 147.878 160.742 147.878C161.22 147.878 161.554 147.712 161.744 147.381C161.933 147.049 162.028 146.68 162.028 146.273V145.506C162.028 145.098 161.935 144.729 161.751 144.398C161.571 144.066 161.235 143.901 160.742 143.901C160.269 143.901 159.933 144.066 159.734 144.398C159.535 144.729 159.435 145.098 159.435 145.506ZM150.465 137.949V137.182C150.465 136.633 150.579 136.128 150.806 135.669C151.038 135.21 151.374 134.843 151.815 134.568C152.26 134.294 152.797 134.156 153.427 134.156C154.071 134.156 154.611 134.294 155.046 134.568C155.482 134.843 155.811 135.21 156.033 135.669C156.256 136.128 156.367 136.633 156.367 137.182V137.949C156.367 138.498 156.254 139.002 156.026 139.462C155.804 139.916 155.472 140.283 155.032 140.562C154.596 140.837 154.061 140.974 153.427 140.974C152.783 140.974 152.241 140.837 151.8 140.562C151.365 140.283 151.033 139.916 150.806 139.462C150.579 139.002 150.465 138.498 150.465 137.949ZM152.127 137.182V137.949C152.127 138.356 152.222 138.725 152.411 139.057C152.605 139.388 152.944 139.554 153.427 139.554C153.9 139.554 154.232 139.388 154.421 139.057C154.615 138.725 154.712 138.356 154.712 137.949V137.182C154.712 136.775 154.62 136.405 154.435 136.074C154.251 135.742 153.915 135.577 153.427 135.577C152.953 135.577 152.617 135.742 152.418 136.074C152.224 136.405 152.127 136.775 152.127 137.182ZM151.14 149L161.14 134.455H162.837L152.837 149H151.14Z" fill="#182E67"/>
<defs>
<filter id="filter0_d_357_5" x="0" y="16" width="58" height="58" filterUnits="userSpaceOnUse" color-interpolation-filters="sRGB">
<feFlood flood-opacity="0" result="BackgroundImageFix"/>
<feColorMatrix in="SourceAlpha" type="matrix" values="0 0 0 0 0 0 0 0 0 0 0 0 0 0 0 0 0 0 127 0" result="hardAlpha"/>
<feOffset dy="4"/>
<feGaussianBlur stdDeviation="2"/>
<feComposite in2="hardAlpha" operator="out"/>
<feColorMatrix type="matrix" values="0 0 0 0 0 0 0 0 0 0 0 0 0 0 0 0 0 0 0.25 0"/>
<feBlend mode="normal" in2="BackgroundImageFix" result="effect1_dropShadow_357_5"/>
<feBlend mode="normal" in="SourceGraphic" in2="effect1_dropShadow_357_5" result="shape"/>
</filter>
<filter id="filter1_d_357_5" x="116" y="116" width="58" height="58" filterUnits="userSpaceOnUse" color-interpolation-filters="sRGB">
<feFlood flood-opacity="0" result="BackgroundImageFix"/>
<feColorMatrix in="SourceAlpha" type="matrix" values="0 0 0 0 0 0 0 0 0 0 0 0 0 0 0 0 0 0 127 0" result="hardAlpha"/>
<feOffset dy="4"/>
<feGaussianBlur stdDeviation="2"/>
<feComposite in2="hardAlpha" operator="out"/>
<feColorMatrix type="matrix" values="0 0 0 0 0 0 0 0 0 0 0 0 0 0 0 0 0 0 0.25 0"/>
<feBlend mode="normal" in2="BackgroundImageFix" result="effect1_dropShadow_357_5"/>
<feBlend mode="normal" in="SourceGraphic" in2="effect1_dropShadow_357_5" result="shape"/>
</filter>
</defs>
</svg>
