<svg width="817" height="402" viewBox="0 0 817 402" fill="none" xmlns="http://www.w3.org/2000/svg">
<path d="M83.6719 312.493C83.6188 312.022 83.4001 311.658 83.0156 311.399C82.6312 311.137 82.1473 311.006 81.5639 311.006C81.1463 311.006 80.785 311.073 80.4801 311.205C80.1752 311.335 79.9382 311.513 79.7692 311.742C79.6035 311.968 79.5206 312.224 79.5206 312.513C79.5206 312.755 79.5769 312.964 79.6896 313.139C79.8056 313.315 79.9564 313.462 80.142 313.582C80.331 313.698 80.5331 313.795 80.7486 313.875C80.964 313.951 81.1712 314.014 81.37 314.064L82.3643 314.322C82.6892 314.402 83.0223 314.51 83.3636 314.646C83.705 314.781 84.0215 314.96 84.3132 315.183C84.6049 315.405 84.8402 315.68 85.0192 316.008C85.2015 316.336 85.2926 316.729 85.2926 317.186C85.2926 317.763 85.1435 318.275 84.8452 318.722C84.5502 319.17 84.121 319.523 83.5575 319.781C82.9974 320.04 82.3196 320.169 81.5241 320.169C80.7618 320.169 80.1023 320.048 79.5455 319.806C78.9886 319.564 78.5528 319.221 78.2379 318.777C77.9231 318.33 77.7491 317.799 77.7159 317.186H79.2571C79.2869 317.554 79.4063 317.861 79.6151 318.106C79.8272 318.348 80.0973 318.528 80.4254 318.648C80.7569 318.764 81.1198 318.822 81.5142 318.822C81.9484 318.822 82.3345 318.754 82.6726 318.618C83.014 318.479 83.2824 318.286 83.478 318.041C83.6735 317.793 83.7713 317.503 83.7713 317.171C83.7713 316.87 83.6851 316.623 83.5128 316.43C83.3438 316.238 83.1134 316.079 82.8217 315.953C82.5334 315.827 82.2069 315.716 81.8423 315.62L80.6392 315.292C79.8239 315.07 79.1776 314.743 78.7003 314.312C78.2263 313.882 77.9893 313.312 77.9893 312.602C77.9893 312.016 78.1484 311.504 78.4666 311.066C78.7848 310.629 79.2157 310.289 79.7592 310.047C80.3028 309.802 80.916 309.679 81.5987 309.679C82.2881 309.679 82.8963 309.8 83.4233 310.042C83.9536 310.284 84.3712 310.617 84.6761 311.041C84.9811 311.462 85.1402 311.946 85.1534 312.493H83.6719ZM91.8464 316.833V312.364H93.3379V320H91.8762V318.678H91.7967C91.621 319.085 91.3393 319.425 90.9515 319.697C90.5671 319.965 90.0881 320.099 89.5147 320.099C89.0242 320.099 88.59 319.992 88.2122 319.776C87.8377 319.558 87.5427 319.234 87.3272 318.807C87.1151 318.379 87.0091 317.851 87.0091 317.221V312.364H88.4956V317.042C88.4956 317.562 88.6397 317.977 88.9281 318.285C89.2164 318.593 89.591 318.747 90.0517 318.747C90.3301 318.747 90.6068 318.678 90.8819 318.538C91.1603 318.399 91.3907 318.189 91.573 317.907C91.7586 317.625 91.8497 317.267 91.8464 316.833ZM96.8217 315.466V320H95.3352V312.364H96.7621V313.607H96.8565C97.0322 313.202 97.3073 312.877 97.6818 312.632C98.0597 312.387 98.5353 312.264 99.1087 312.264C99.629 312.264 100.085 312.374 100.476 312.592C100.867 312.808 101.17 313.129 101.386 313.557C101.601 313.984 101.709 314.513 101.709 315.143V320H100.222V315.322C100.222 314.768 100.078 314.336 99.7898 314.024C99.5014 313.709 99.1054 313.552 98.6016 313.552C98.2569 313.552 97.9503 313.626 97.6818 313.776C97.4167 313.925 97.2062 314.143 97.0504 314.432C96.898 314.717 96.8217 315.062 96.8217 315.466Z" fill="#1E1E1E" fill-opacity="0.75"/>
<path d="M1.97869 320H0.348011L4.01207 309.818H5.78693L9.45099 320H7.82031L4.94176 311.668H4.86222L1.97869 320ZM2.25213 316.013H7.5419V317.305H2.25213V316.013ZM13.5376 320.149C12.9212 320.149 12.371 319.992 11.8871 319.677C11.4065 319.359 11.0286 318.906 10.7536 318.32C10.4818 317.73 10.3459 317.022 10.3459 316.197C10.3459 315.371 10.4834 314.665 10.7585 314.079C11.0369 313.492 11.4181 313.043 11.902 312.732C12.3859 312.42 12.9344 312.264 13.5476 312.264C14.0215 312.264 14.4027 312.344 14.6911 312.503C14.9827 312.659 15.2081 312.841 15.3672 313.05C15.5296 313.259 15.6555 313.442 15.745 313.602H15.8345V309.818H17.321V320H15.8693V318.812H15.745C15.6555 318.974 15.5263 319.16 15.3572 319.369C15.1915 319.577 14.9628 319.76 14.6712 319.915C14.3795 320.071 14.0017 320.149 13.5376 320.149ZM13.8658 318.881C14.2933 318.881 14.6546 318.769 14.9496 318.543C15.2479 318.315 15.4732 317.998 15.6257 317.594C15.7815 317.189 15.8594 316.719 15.8594 316.182C15.8594 315.652 15.7831 315.187 15.6307 314.79C15.4782 314.392 15.2545 314.082 14.9595 313.86C14.6645 313.638 14.3 313.527 13.8658 313.527C13.4183 313.527 13.0455 313.643 12.7472 313.875C12.4489 314.107 12.2235 314.424 12.071 314.825C11.9219 315.226 11.8473 315.678 11.8473 316.182C11.8473 316.692 11.9235 317.151 12.076 317.559C12.2285 317.967 12.4538 318.29 12.7521 318.528C13.0537 318.764 13.425 318.881 13.8658 318.881ZM25.165 314.228L23.8176 314.467C23.7613 314.294 23.6718 314.13 23.5492 313.974C23.4299 313.819 23.2675 313.691 23.062 313.592C22.8565 313.492 22.5996 313.442 22.2914 313.442C21.8704 313.442 21.5191 313.537 21.2374 313.726C20.9557 313.911 20.8148 314.152 20.8148 314.447C20.8148 314.702 20.9093 314.907 21.0982 315.063C21.2871 315.219 21.592 315.347 22.013 315.446L23.226 315.724C23.9287 315.887 24.4524 316.137 24.7971 316.475C25.1417 316.813 25.3141 317.252 25.3141 317.793C25.3141 318.25 25.1815 318.658 24.9164 319.016C24.6545 319.37 24.2883 319.649 23.8176 319.851C23.3503 320.053 22.8084 320.154 22.1919 320.154C21.3368 320.154 20.6391 319.972 20.0989 319.607C19.5587 319.239 19.2272 318.717 19.1046 318.041L20.5414 317.822C20.6309 318.197 20.8148 318.48 21.0932 318.673C21.3716 318.862 21.7346 318.956 22.182 318.956C22.6692 318.956 23.0587 318.855 23.3503 318.653C23.642 318.447 23.7878 318.197 23.7878 317.902C23.7878 317.663 23.6983 317.463 23.5194 317.3C23.3437 317.138 23.0736 317.015 22.709 316.933L21.4164 316.649C20.7038 316.487 20.1768 316.228 19.8354 315.874C19.4973 315.519 19.3283 315.07 19.3283 314.526C19.3283 314.076 19.4542 313.681 19.7061 313.343C19.958 313.005 20.306 312.741 20.7502 312.553C21.1943 312.36 21.7031 312.264 22.2765 312.264C23.1017 312.264 23.7514 312.443 24.2253 312.801C24.6993 313.156 25.0125 313.631 25.165 314.228Z" fill="#1E1E1E"/>
<path d="M46.4148 350H43.1186V339.818H46.5192C47.5168 339.818 48.3736 340.022 49.0895 340.43C49.8054 340.834 50.3539 341.416 50.7351 342.175C51.1196 342.93 51.3118 343.837 51.3118 344.894C51.3118 345.955 51.1179 346.866 50.7301 347.629C50.3456 348.391 49.7888 348.978 49.0597 349.388C48.3305 349.796 47.4489 350 46.4148 350ZM44.6548 348.658H46.3303C47.1058 348.658 47.7505 348.512 48.2642 348.22C48.7779 347.925 49.1624 347.499 49.4176 346.942C49.6728 346.382 49.8004 345.7 49.8004 344.894C49.8004 344.095 49.6728 343.418 49.4176 342.861C49.1657 342.304 48.7895 341.881 48.2891 341.593C47.7886 341.305 47.1671 341.161 46.4247 341.161H44.6548V348.658ZM55.3251 350.169C54.8412 350.169 54.4037 350.08 54.0126 349.901C53.6215 349.718 53.3116 349.455 53.0829 349.11C52.8575 348.765 52.7449 348.343 52.7449 347.842C52.7449 347.411 52.8277 347.057 52.9934 346.778C53.1592 346.5 53.3829 346.28 53.6646 346.117C53.9463 345.955 54.2612 345.832 54.6092 345.749C54.9572 345.666 55.3118 345.603 55.6731 345.56C56.1305 345.507 56.5017 345.464 56.7868 345.431C57.0718 345.395 57.2789 345.337 57.4082 345.257C57.5375 345.178 57.6021 345.048 57.6021 344.869V344.835C57.6021 344.4 57.4795 344.064 57.2342 343.825C56.9922 343.587 56.631 343.467 56.1504 343.467C55.6499 343.467 55.2555 343.578 54.9672 343.8C54.6821 344.019 54.4849 344.263 54.3755 344.531L52.9785 344.213C53.1442 343.749 53.3862 343.375 53.7044 343.089C54.0259 342.801 54.3954 342.592 54.813 342.463C55.2306 342.33 55.6698 342.264 56.1305 342.264C56.4354 342.264 56.7586 342.301 57.1 342.374C57.4447 342.443 57.7662 342.572 58.0645 342.761C58.3661 342.95 58.613 343.22 58.8052 343.572C58.9975 343.92 59.0936 344.372 59.0936 344.929V350H57.6419V348.956H57.5822C57.4861 349.148 57.3419 349.337 57.1497 349.523C56.9574 349.708 56.7105 349.862 56.4089 349.985C56.1073 350.108 55.746 350.169 55.3251 350.169ZM55.6483 348.976C56.0592 348.976 56.4106 348.895 56.7022 348.732C56.9972 348.57 57.2209 348.358 57.3734 348.096C57.5292 347.831 57.6071 347.547 57.6071 347.246V346.261C57.554 346.314 57.4513 346.364 57.2988 346.411C57.1497 346.454 56.979 346.492 56.7868 346.525C56.5945 346.555 56.4073 346.583 56.225 346.609C56.0427 346.633 55.8902 346.652 55.7676 346.669C55.4792 346.705 55.2157 346.767 54.9771 346.853C54.7418 346.939 54.5529 347.063 54.4103 347.226C54.2711 347.385 54.2015 347.597 54.2015 347.862C54.2015 348.23 54.3374 348.509 54.6092 348.697C54.881 348.883 55.2273 348.976 55.6483 348.976ZM61.7397 352.864C61.5176 352.864 61.3155 352.845 61.1332 352.809C60.9509 352.776 60.815 352.739 60.7255 352.7L61.0835 351.482C61.3552 351.554 61.5972 351.586 61.8093 351.576C62.0214 351.566 62.2087 351.487 62.3711 351.337C62.5368 351.188 62.6826 350.945 62.8086 350.607L62.9925 350.099L60.1985 342.364H61.7894L63.7234 348.29H63.8029L65.7369 342.364H67.3327L64.1857 351.019C64.0399 351.417 63.8543 351.753 63.6289 352.028C63.4035 352.307 63.1351 352.516 62.8235 352.655C62.512 352.794 62.1507 352.864 61.7397 352.864ZM74.4521 344.228L73.1048 344.467C73.0484 344.294 72.9589 344.13 72.8363 343.974C72.717 343.819 72.5546 343.691 72.3491 343.592C72.1436 343.492 71.8867 343.442 71.5785 343.442C71.1576 343.442 70.8062 343.537 70.5245 343.726C70.2428 343.911 70.1019 344.152 70.1019 344.447C70.1019 344.702 70.1964 344.907 70.3853 345.063C70.5742 345.219 70.8791 345.347 71.3001 345.446L72.5131 345.724C73.2158 345.887 73.7395 346.137 74.0842 346.475C74.4289 346.813 74.6012 347.252 74.6012 347.793C74.6012 348.25 74.4686 348.658 74.2035 349.016C73.9416 349.37 73.5754 349.649 73.1048 349.851C72.6374 350.053 72.0955 350.154 71.479 350.154C70.6239 350.154 69.9263 349.972 69.386 349.607C68.8458 349.239 68.5143 348.717 68.3917 348.041L69.8285 347.822C69.918 348.197 70.1019 348.48 70.3803 348.673C70.6587 348.862 71.0217 348.956 71.4691 348.956C71.9563 348.956 72.3458 348.855 72.6374 348.653C72.9291 348.447 73.0749 348.197 73.0749 347.902C73.0749 347.663 72.9854 347.463 72.8065 347.3C72.6308 347.138 72.3607 347.015 71.9961 346.933L70.7035 346.649C69.9909 346.487 69.4639 346.228 69.1225 345.874C68.7844 345.519 68.6154 345.07 68.6154 344.526C68.6154 344.076 68.7414 343.681 68.9933 343.343C69.2451 343.005 69.5932 342.741 70.0373 342.553C70.4814 342.36 70.9902 342.264 71.5636 342.264C72.3888 342.264 73.0385 342.443 73.5124 342.801C73.9864 343.156 74.2996 343.631 74.4521 344.228Z" fill="#1E1E1E"/>
<path d="M92.9787 399H91.348L95.0121 388.818H96.7869L100.451 399H98.8203L95.9418 390.668H95.8622L92.9787 399ZM93.2521 395.013H98.5419V396.305H93.2521V395.013ZM104.538 399.149C103.921 399.149 103.371 398.992 102.887 398.677C102.406 398.359 102.029 397.906 101.754 397.32C101.482 396.73 101.346 396.022 101.346 395.197C101.346 394.371 101.483 393.665 101.759 393.079C102.037 392.492 102.418 392.043 102.902 391.732C103.386 391.42 103.934 391.264 104.548 391.264C105.022 391.264 105.403 391.344 105.691 391.503C105.983 391.659 106.208 391.841 106.367 392.05C106.53 392.259 106.656 392.442 106.745 392.602H106.835V388.818H108.321V399H106.869V397.812H106.745C106.656 397.974 106.526 398.16 106.357 398.369C106.192 398.577 105.963 398.76 105.671 398.915C105.379 399.071 105.002 399.149 104.538 399.149ZM104.866 397.881C105.293 397.881 105.655 397.769 105.95 397.543C106.248 397.315 106.473 396.998 106.626 396.594C106.781 396.189 106.859 395.719 106.859 395.182C106.859 394.652 106.783 394.187 106.631 393.79C106.478 393.392 106.254 393.082 105.96 392.86C105.665 392.638 105.3 392.527 104.866 392.527C104.418 392.527 104.045 392.643 103.747 392.875C103.449 393.107 103.223 393.424 103.071 393.825C102.922 394.226 102.847 394.678 102.847 395.182C102.847 395.692 102.924 396.151 103.076 396.559C103.228 396.967 103.454 397.29 103.752 397.528C104.054 397.764 104.425 397.881 104.866 397.881ZM116.165 393.228L114.818 393.467C114.761 393.294 114.672 393.13 114.549 392.974C114.43 392.819 114.267 392.691 114.062 392.592C113.856 392.492 113.6 392.442 113.291 392.442C112.87 392.442 112.519 392.537 112.237 392.726C111.956 392.911 111.815 393.152 111.815 393.447C111.815 393.702 111.909 393.907 112.098 394.063C112.287 394.219 112.592 394.347 113.013 394.446L114.226 394.724C114.929 394.887 115.452 395.137 115.797 395.475C116.142 395.813 116.314 396.252 116.314 396.793C116.314 397.25 116.182 397.658 115.916 398.016C115.655 398.37 115.288 398.649 114.818 398.851C114.35 399.053 113.808 399.154 113.192 399.154C112.337 399.154 111.639 398.972 111.099 398.607C110.559 398.239 110.227 397.717 110.105 397.041L111.541 396.822C111.631 397.197 111.815 397.48 112.093 397.673C112.372 397.862 112.735 397.956 113.182 397.956C113.669 397.956 114.059 397.855 114.35 397.653C114.642 397.447 114.788 397.197 114.788 396.902C114.788 396.663 114.698 396.463 114.519 396.3C114.344 396.138 114.074 396.015 113.709 395.933L112.416 395.649C111.704 395.487 111.177 395.228 110.835 394.874C110.497 394.519 110.328 394.07 110.328 393.526C110.328 393.076 110.454 392.681 110.706 392.343C110.958 392.005 111.306 391.741 111.75 391.553C112.194 391.36 112.703 391.264 113.276 391.264C114.102 391.264 114.751 391.443 115.225 391.801C115.699 392.156 116.012 392.631 116.165 393.228ZM123.767 399L120.943 388.818H122.558L124.542 396.703H124.637L126.7 388.818H128.301L130.364 396.708H130.458L132.437 388.818H134.058L131.229 399H129.683L127.54 391.374H127.46L125.318 399H123.767ZM136.809 399.169C136.326 399.169 135.888 399.08 135.497 398.901C135.106 398.718 134.796 398.455 134.567 398.11C134.342 397.765 134.229 397.343 134.229 396.842C134.229 396.411 134.312 396.057 134.478 395.778C134.644 395.5 134.867 395.28 135.149 395.117C135.431 394.955 135.746 394.832 136.094 394.749C136.442 394.666 136.796 394.603 137.157 394.56C137.615 394.507 137.986 394.464 138.271 394.431C138.556 394.395 138.763 394.337 138.893 394.257C139.022 394.178 139.086 394.048 139.086 393.869V393.835C139.086 393.4 138.964 393.064 138.719 392.825C138.477 392.587 138.115 392.467 137.635 392.467C137.134 392.467 136.74 392.578 136.452 392.8C136.166 393.019 135.969 393.263 135.86 393.531L134.463 393.213C134.629 392.749 134.871 392.375 135.189 392.089C135.51 391.801 135.88 391.592 136.297 391.463C136.715 391.33 137.154 391.264 137.615 391.264C137.92 391.264 138.243 391.301 138.584 391.374C138.929 391.443 139.251 391.572 139.549 391.761C139.85 391.95 140.097 392.22 140.29 392.572C140.482 392.92 140.578 393.372 140.578 393.929V399H139.126V397.956H139.067C138.97 398.148 138.826 398.337 138.634 398.523C138.442 398.708 138.195 398.862 137.893 398.985C137.592 399.108 137.23 399.169 136.809 399.169ZM137.133 397.976C137.544 397.976 137.895 397.895 138.187 397.732C138.482 397.57 138.705 397.358 138.858 397.096C139.014 396.831 139.091 396.547 139.091 396.246V395.261C139.038 395.314 138.936 395.364 138.783 395.411C138.634 395.454 138.463 395.492 138.271 395.525C138.079 395.555 137.892 395.583 137.709 395.609C137.527 395.633 137.375 395.652 137.252 395.669C136.964 395.705 136.7 395.767 136.461 395.853C136.226 395.939 136.037 396.063 135.895 396.226C135.756 396.385 135.686 396.597 135.686 396.862C135.686 397.23 135.822 397.509 136.094 397.697C136.365 397.883 136.712 397.976 137.133 397.976ZM146.123 391.364V392.557H141.951V391.364H146.123ZM143.07 389.534H144.556V396.758C144.556 397.046 144.6 397.263 144.686 397.409C144.772 397.552 144.883 397.649 145.019 397.702C145.158 397.752 145.309 397.777 145.471 397.777C145.591 397.777 145.695 397.769 145.784 397.752C145.874 397.736 145.944 397.722 145.993 397.712L146.262 398.94C146.176 398.973 146.053 399.007 145.894 399.04C145.735 399.076 145.536 399.096 145.297 399.099C144.906 399.106 144.542 399.036 144.203 398.891C143.865 398.745 143.592 398.519 143.383 398.214C143.174 397.91 143.07 397.527 143.07 397.066V389.534ZM150.901 399.154C150.162 399.154 149.526 398.987 148.992 398.652C148.462 398.314 148.054 397.848 147.769 397.255C147.484 396.662 147.342 395.982 147.342 395.217C147.342 394.441 147.488 393.757 147.779 393.163C148.071 392.567 148.482 392.101 149.012 391.766C149.543 391.432 150.167 391.264 150.887 391.264C151.467 391.264 151.984 391.372 152.438 391.587C152.892 391.799 153.258 392.098 153.536 392.482C153.818 392.867 153.985 393.316 154.039 393.83H152.592C152.512 393.472 152.33 393.163 152.045 392.905C151.763 392.646 151.385 392.517 150.911 392.517C150.497 392.517 150.134 392.626 149.823 392.845C149.514 393.061 149.274 393.369 149.102 393.77C148.929 394.168 148.843 394.638 148.843 395.182C148.843 395.739 148.928 396.219 149.097 396.624C149.266 397.028 149.504 397.341 149.813 397.563C150.124 397.785 150.49 397.896 150.911 397.896C151.193 397.896 151.448 397.845 151.677 397.742C151.909 397.636 152.103 397.485 152.259 397.29C152.418 397.094 152.529 396.859 152.592 396.584H154.039C153.985 397.078 153.825 397.518 153.556 397.906C153.288 398.294 152.928 398.599 152.477 398.821C152.03 399.043 151.505 399.154 150.901 399.154ZM157.115 394.466V399H155.628V388.818H157.095V392.607H157.189C157.368 392.196 157.642 391.869 158.01 391.627C158.377 391.385 158.858 391.264 159.451 391.264C159.975 391.264 160.432 391.372 160.824 391.587C161.218 391.803 161.523 392.124 161.738 392.552C161.957 392.976 162.066 393.506 162.066 394.143V399H160.58V394.322C160.58 393.762 160.436 393.327 160.147 393.019C159.859 392.708 159.458 392.552 158.944 392.552C158.593 392.552 158.278 392.626 158 392.776C157.725 392.925 157.507 393.143 157.348 393.432C157.193 393.717 157.115 394.062 157.115 394.466ZM167.341 399.154C166.589 399.154 165.941 398.993 165.397 398.672C164.857 398.347 164.44 397.891 164.145 397.305C163.853 396.715 163.707 396.024 163.707 395.232C163.707 394.449 163.853 393.76 164.145 393.163C164.44 392.567 164.85 392.101 165.377 391.766C165.908 391.432 166.528 391.264 167.237 391.264C167.668 391.264 168.085 391.335 168.49 391.478C168.894 391.621 169.257 391.844 169.578 392.149C169.9 392.454 170.154 392.85 170.339 393.337C170.525 393.821 170.618 394.41 170.618 395.102V395.629H164.547V394.516H169.161C169.161 394.125 169.081 393.778 168.922 393.477C168.763 393.172 168.539 392.931 168.251 392.756C167.966 392.58 167.631 392.492 167.247 392.492C166.829 392.492 166.465 392.595 166.153 392.8C165.845 393.003 165.606 393.268 165.437 393.596C165.271 393.921 165.189 394.274 165.189 394.655V395.525C165.189 396.035 165.278 396.469 165.457 396.827C165.639 397.185 165.893 397.459 166.218 397.648C166.542 397.833 166.922 397.926 167.356 397.926C167.638 397.926 167.895 397.886 168.127 397.807C168.359 397.724 168.559 397.601 168.728 397.439C168.897 397.277 169.027 397.076 169.116 396.837L170.523 397.091C170.41 397.505 170.208 397.868 169.917 398.18C169.628 398.488 169.265 398.728 168.828 398.901C168.394 399.07 167.898 399.154 167.341 399.154ZM175.126 399.149C174.509 399.149 173.959 398.992 173.475 398.677C172.994 398.359 172.617 397.906 172.341 397.32C172.07 396.73 171.934 396.022 171.934 395.197C171.934 394.371 172.071 393.665 172.346 393.079C172.625 392.492 173.006 392.043 173.49 391.732C173.974 391.42 174.522 391.264 175.135 391.264C175.609 391.264 175.991 391.344 176.279 391.503C176.571 391.659 176.796 391.841 176.955 392.05C177.117 392.259 177.243 392.442 177.333 392.602H177.422V388.818H178.909V399H177.457V397.812H177.333C177.243 397.974 177.114 398.16 176.945 398.369C176.779 398.577 176.551 398.76 176.259 398.915C175.967 399.071 175.59 399.149 175.126 399.149ZM175.454 397.881C175.881 397.881 176.242 397.769 176.537 397.543C176.836 397.315 177.061 396.998 177.214 396.594C177.369 396.189 177.447 395.719 177.447 395.182C177.447 394.652 177.371 394.187 177.219 393.79C177.066 393.392 176.842 393.082 176.547 392.86C176.252 392.638 175.888 392.527 175.454 392.527C175.006 392.527 174.633 392.643 174.335 392.875C174.037 393.107 173.811 393.424 173.659 393.825C173.51 394.226 173.435 394.678 173.435 395.182C173.435 395.692 173.511 396.151 173.664 396.559C173.816 396.967 174.042 397.29 174.34 397.528C174.642 397.764 175.013 397.881 175.454 397.881Z" fill="#1E1E1E"/>
<path d="M263.119 399V388.818H266.748C267.54 388.818 268.196 388.962 268.717 389.251C269.237 389.539 269.626 389.933 269.885 390.434C270.143 390.931 270.273 391.491 270.273 392.114C270.273 392.741 270.142 393.304 269.88 393.805C269.621 394.302 269.23 394.696 268.707 394.988C268.186 395.276 267.532 395.42 266.743 395.42H264.247V394.118H266.604C267.104 394.118 267.51 394.032 267.822 393.859C268.133 393.684 268.362 393.445 268.508 393.143C268.654 392.842 268.727 392.499 268.727 392.114C268.727 391.73 268.654 391.388 268.508 391.09C268.362 390.792 268.132 390.558 267.817 390.389C267.505 390.22 267.094 390.136 266.584 390.136H264.655V399H263.119ZM275.075 399.154C274.359 399.154 273.735 398.99 273.201 398.662C272.667 398.334 272.253 397.875 271.958 397.285C271.663 396.695 271.516 396.005 271.516 395.217C271.516 394.424 271.663 393.732 271.958 393.138C272.253 392.545 272.667 392.085 273.201 391.756C273.735 391.428 274.359 391.264 275.075 391.264C275.791 391.264 276.416 391.428 276.95 391.756C277.483 392.085 277.897 392.545 278.192 393.138C278.487 393.732 278.635 394.424 278.635 395.217C278.635 396.005 278.487 396.695 278.192 397.285C277.897 397.875 277.483 398.334 276.95 398.662C276.416 398.99 275.791 399.154 275.075 399.154ZM275.08 397.906C275.544 397.906 275.929 397.784 276.234 397.538C276.539 397.293 276.764 396.967 276.91 396.559C277.059 396.151 277.134 395.702 277.134 395.212C277.134 394.724 277.059 394.277 276.91 393.869C276.764 393.458 276.539 393.129 276.234 392.88C275.929 392.631 275.544 392.507 275.08 392.507C274.613 392.507 274.225 392.631 273.917 392.88C273.612 393.129 273.385 393.458 273.236 393.869C273.09 394.277 273.017 394.724 273.017 395.212C273.017 395.702 273.09 396.151 273.236 396.559C273.385 396.967 273.612 397.293 273.917 397.538C274.225 397.784 274.613 397.906 275.08 397.906ZM280.294 399V391.364H281.781V399H280.294ZM281.045 390.185C280.786 390.185 280.564 390.099 280.379 389.927C280.196 389.751 280.105 389.542 280.105 389.3C280.105 389.055 280.196 388.846 280.379 388.674C280.564 388.498 280.786 388.411 281.045 388.411C281.303 388.411 281.524 388.498 281.706 388.674C281.892 388.846 281.985 389.055 281.985 389.3C281.985 389.542 281.892 389.751 281.706 389.927C281.524 390.099 281.303 390.185 281.045 390.185ZM285.267 394.466V399H283.781V391.364H285.207V392.607H285.302C285.478 392.202 285.753 391.877 286.127 391.632C286.505 391.387 286.981 391.264 287.554 391.264C288.074 391.264 288.53 391.374 288.921 391.592C289.312 391.808 289.616 392.129 289.831 392.557C290.046 392.984 290.154 393.513 290.154 394.143V399H288.668V394.322C288.668 393.768 288.523 393.336 288.235 393.024C287.947 392.709 287.551 392.552 287.047 392.552C286.702 392.552 286.396 392.626 286.127 392.776C285.862 392.925 285.652 393.143 285.496 393.432C285.343 393.717 285.267 394.062 285.267 394.466ZM295.712 391.364V392.557H291.541V391.364H295.712ZM292.66 389.534H294.146V396.758C294.146 397.046 294.189 397.263 294.276 397.409C294.362 397.552 294.473 397.649 294.609 397.702C294.748 397.752 294.899 397.777 295.061 397.777C295.18 397.777 295.285 397.769 295.374 397.752C295.464 397.736 295.533 397.722 295.583 397.712L295.852 398.94C295.765 398.973 295.643 399.007 295.484 399.04C295.325 399.076 295.126 399.096 294.887 399.099C294.496 399.106 294.131 399.036 293.793 398.891C293.455 398.745 293.182 398.519 292.973 398.214C292.764 397.91 292.66 397.527 292.66 397.066V389.534ZM302.956 393.228L301.609 393.467C301.552 393.294 301.463 393.13 301.34 392.974C301.221 392.819 301.058 392.691 300.853 392.592C300.647 392.492 300.391 392.442 300.082 392.442C299.661 392.442 299.31 392.537 299.028 392.726C298.747 392.911 298.606 393.152 298.606 393.447C298.606 393.702 298.7 393.907 298.889 394.063C299.078 394.219 299.383 394.347 299.804 394.446L301.017 394.724C301.72 394.887 302.243 395.137 302.588 395.475C302.933 395.813 303.105 396.252 303.105 396.793C303.105 397.25 302.973 397.658 302.707 398.016C302.446 398.37 302.079 398.649 301.609 398.851C301.141 399.053 300.599 399.154 299.983 399.154C299.128 399.154 298.43 398.972 297.89 398.607C297.35 398.239 297.018 397.717 296.896 397.041L298.332 396.822C298.422 397.197 298.606 397.48 298.884 397.673C299.163 397.862 299.526 397.956 299.973 397.956C300.46 397.956 300.85 397.855 301.141 397.653C301.433 397.447 301.579 397.197 301.579 396.902C301.579 396.663 301.489 396.463 301.31 396.3C301.135 396.138 300.865 396.015 300.5 395.933L299.207 395.649C298.495 395.487 297.968 395.228 297.626 394.874C297.288 394.519 297.119 394.07 297.119 393.526C297.119 393.076 297.245 392.681 297.497 392.343C297.749 392.005 298.097 391.741 298.541 391.553C298.985 391.36 299.494 391.264 300.067 391.264C300.893 391.264 301.542 391.443 302.016 391.801C302.49 392.156 302.804 392.631 302.956 393.228ZM308.564 399V388.818H314.947V390.141H310.1V393.243H314.614V394.56H310.1V397.678H315.007V399H308.564ZM319.102 399.169C318.619 399.169 318.181 399.08 317.79 398.901C317.399 398.718 317.089 398.455 316.86 398.11C316.635 397.765 316.522 397.343 316.522 396.842C316.522 396.411 316.605 396.057 316.771 395.778C316.936 395.5 317.16 395.28 317.442 395.117C317.724 394.955 318.039 394.832 318.387 394.749C318.735 394.666 319.089 394.603 319.45 394.56C319.908 394.507 320.279 394.464 320.564 394.431C320.849 394.395 321.056 394.337 321.186 394.257C321.315 394.178 321.379 394.048 321.379 393.869V393.835C321.379 393.4 321.257 393.064 321.012 392.825C320.77 392.587 320.408 392.467 319.928 392.467C319.427 392.467 319.033 392.578 318.744 392.8C318.459 393.019 318.262 393.263 318.153 393.531L316.756 393.213C316.922 392.749 317.164 392.375 317.482 392.089C317.803 391.801 318.173 391.592 318.59 391.463C319.008 391.33 319.447 391.264 319.908 391.264C320.213 391.264 320.536 391.301 320.877 391.374C321.222 391.443 321.544 391.572 321.842 391.761C322.143 391.95 322.39 392.22 322.583 392.572C322.775 392.92 322.871 393.372 322.871 393.929V399H321.419V397.956H321.36C321.263 398.148 321.119 398.337 320.927 398.523C320.735 398.708 320.488 398.862 320.186 398.985C319.885 399.108 319.523 399.169 319.102 399.169ZM319.426 397.976C319.837 397.976 320.188 397.895 320.48 397.732C320.775 397.57 320.998 397.358 321.151 397.096C321.307 396.831 321.384 396.547 321.384 396.246V395.261C321.331 395.314 321.229 395.364 321.076 395.411C320.927 395.454 320.756 395.492 320.564 395.525C320.372 395.555 320.185 395.583 320.002 395.609C319.82 395.633 319.668 395.652 319.545 395.669C319.257 395.705 318.993 395.767 318.754 395.853C318.519 395.939 318.33 396.063 318.188 396.226C318.048 396.385 317.979 396.597 317.979 396.862C317.979 397.23 318.115 397.509 318.387 397.697C318.658 397.883 319.005 397.976 319.426 397.976ZM324.851 399V391.364H326.288V392.577H326.367C326.506 392.166 326.752 391.843 327.103 391.607C327.458 391.369 327.859 391.249 328.306 391.249C328.399 391.249 328.508 391.253 328.634 391.259C328.763 391.266 328.865 391.274 328.938 391.284V392.706C328.878 392.689 328.772 392.671 328.619 392.651C328.467 392.628 328.314 392.616 328.162 392.616C327.811 392.616 327.497 392.691 327.222 392.84C326.951 392.986 326.735 393.19 326.576 393.452C326.417 393.71 326.337 394.005 326.337 394.337V399H324.851ZM331.71 394.466V399H330.224V391.364H331.651V392.607H331.745C331.921 392.202 332.196 391.877 332.57 391.632C332.948 391.387 333.424 391.264 333.997 391.264C334.518 391.264 334.973 391.374 335.365 391.592C335.756 391.808 336.059 392.129 336.274 392.557C336.49 392.984 336.597 393.513 336.597 394.143V399H335.111V394.322C335.111 393.768 334.967 393.336 334.678 393.024C334.39 392.709 333.994 392.552 333.49 392.552C333.146 392.552 332.839 392.626 332.57 392.776C332.305 392.925 332.095 393.143 331.939 393.432C331.787 393.717 331.71 394.062 331.71 394.466ZM341.882 399.154C341.13 399.154 340.482 398.993 339.938 398.672C339.398 398.347 338.981 397.891 338.686 397.305C338.394 396.715 338.248 396.024 338.248 395.232C338.248 394.449 338.394 393.76 338.686 393.163C338.981 392.567 339.392 392.101 339.919 391.766C340.449 391.432 341.069 391.264 341.778 391.264C342.209 391.264 342.626 391.335 343.031 391.478C343.435 391.621 343.798 391.844 344.119 392.149C344.441 392.454 344.695 392.85 344.88 393.337C345.066 393.821 345.159 394.41 345.159 395.102V395.629H339.088V394.516H343.702C343.702 394.125 343.622 393.778 343.463 393.477C343.304 393.172 343.08 392.931 342.792 392.756C342.507 392.58 342.172 392.492 341.788 392.492C341.37 392.492 341.006 392.595 340.694 392.8C340.386 393.003 340.147 393.268 339.978 393.596C339.812 393.921 339.73 394.274 339.73 394.655V395.525C339.73 396.035 339.819 396.469 339.998 396.827C340.18 397.185 340.434 397.459 340.759 397.648C341.084 397.833 341.463 397.926 341.897 397.926C342.179 397.926 342.436 397.886 342.668 397.807C342.9 397.724 343.1 397.601 343.269 397.439C343.438 397.277 343.568 397.076 343.657 396.837L345.064 397.091C344.951 397.505 344.749 397.868 344.458 398.18C344.169 398.488 343.806 398.728 343.369 398.901C342.935 399.07 342.439 399.154 341.882 399.154ZM349.667 399.149C349.05 399.149 348.5 398.992 348.016 398.677C347.535 398.359 347.158 397.906 346.882 397.32C346.611 396.73 346.475 396.022 346.475 395.197C346.475 394.371 346.612 393.665 346.887 393.079C347.166 392.492 347.547 392.043 348.031 391.732C348.515 391.42 349.063 391.264 349.676 391.264C350.15 391.264 350.532 391.344 350.82 391.503C351.112 391.659 351.337 391.841 351.496 392.05C351.658 392.259 351.784 392.442 351.874 392.602H351.963V388.818H353.45V399H351.998V397.812H351.874C351.784 397.974 351.655 398.16 351.486 398.369C351.32 398.577 351.092 398.76 350.8 398.915C350.508 399.071 350.131 399.149 349.667 399.149ZM349.995 397.881C350.422 397.881 350.783 397.769 351.078 397.543C351.377 397.315 351.602 396.998 351.755 396.594C351.91 396.189 351.988 395.719 351.988 395.182C351.988 394.652 351.912 394.187 351.76 393.79C351.607 393.392 351.383 393.082 351.088 392.86C350.793 392.638 350.429 392.527 349.995 392.527C349.547 392.527 349.174 392.643 348.876 392.875C348.578 393.107 348.352 393.424 348.2 393.825C348.051 394.226 347.976 394.678 347.976 395.182C347.976 395.692 348.052 396.151 348.205 396.559C348.357 396.967 348.583 397.29 348.881 397.528C349.183 397.764 349.554 397.881 349.995 397.881Z" fill="#1E1E1E"/>
<path d="M438.009 388.818L440.842 397.111H440.957L443.79 388.818H445.451L441.787 399H440.012L436.348 388.818H438.009ZM446.921 399V388.818H450.551C451.343 388.818 451.999 388.962 452.519 389.251C453.04 389.539 453.429 389.933 453.688 390.434C453.946 390.931 454.075 391.491 454.075 392.114C454.075 392.741 453.945 393.304 453.683 393.805C453.424 394.302 453.033 394.696 452.509 394.988C451.989 395.276 451.334 395.42 450.546 395.42H448.05V394.118H450.406C450.907 394.118 451.313 394.032 451.624 393.859C451.936 393.684 452.165 393.445 452.311 393.143C452.456 392.842 452.529 392.499 452.529 392.114C452.529 391.73 452.456 391.388 452.311 391.09C452.165 390.792 451.934 390.558 451.619 390.389C451.308 390.22 450.897 390.136 450.387 390.136H448.458V399H446.921ZM464.094 388.818V399H462.683L457.507 391.533H457.413V399H455.876V388.818H457.298L462.479 396.295H462.573V388.818H464.094ZM474.759 395.833V391.364H476.25V399H474.788V397.678H474.709C474.533 398.085 474.251 398.425 473.864 398.697C473.479 398.965 473 399.099 472.427 399.099C471.936 399.099 471.502 398.992 471.124 398.776C470.75 398.558 470.455 398.234 470.239 397.807C470.027 397.379 469.921 396.851 469.921 396.221V391.364H471.408V396.042C471.408 396.562 471.552 396.977 471.84 397.285C472.129 397.593 472.503 397.747 472.964 397.747C473.242 397.747 473.519 397.678 473.794 397.538C474.072 397.399 474.303 397.189 474.485 396.907C474.671 396.625 474.762 396.267 474.759 395.833ZM483.97 393.228L482.622 393.467C482.566 393.294 482.477 393.13 482.354 392.974C482.235 392.819 482.072 392.691 481.867 392.592C481.661 392.492 481.404 392.442 481.096 392.442C480.675 392.442 480.324 392.537 480.042 392.726C479.76 392.911 479.619 393.152 479.619 393.447C479.619 393.702 479.714 393.907 479.903 394.063C480.092 394.219 480.397 394.347 480.818 394.446L482.031 394.724C482.733 394.887 483.257 395.137 483.602 395.475C483.946 395.813 484.119 396.252 484.119 396.793C484.119 397.25 483.986 397.658 483.721 398.016C483.459 398.37 483.093 398.649 482.622 398.851C482.155 399.053 481.613 399.154 480.997 399.154C480.142 399.154 479.444 398.972 478.904 398.607C478.363 398.239 478.032 397.717 477.909 397.041L479.346 396.822C479.436 397.197 479.619 397.48 479.898 397.673C480.176 397.862 480.539 397.956 480.987 397.956C481.474 397.956 481.863 397.855 482.155 397.653C482.447 397.447 482.593 397.197 482.593 396.902C482.593 396.663 482.503 396.463 482.324 396.3C482.148 396.138 481.878 396.015 481.514 395.933L480.221 395.649C479.508 395.487 478.981 395.228 478.64 394.874C478.302 394.519 478.133 394.07 478.133 393.526C478.133 393.076 478.259 392.681 478.511 392.343C478.763 392.005 479.111 391.741 479.555 391.553C479.999 391.36 480.508 391.264 481.081 391.264C481.906 391.264 482.556 391.443 483.03 391.801C483.504 392.156 483.817 392.631 483.97 393.228ZM489.044 399.154C488.292 399.154 487.644 398.993 487.1 398.672C486.56 398.347 486.143 397.891 485.848 397.305C485.556 396.715 485.41 396.024 485.41 395.232C485.41 394.449 485.556 393.76 485.848 393.163C486.143 392.567 486.554 392.101 487.081 391.766C487.611 391.432 488.231 391.264 488.94 391.264C489.371 391.264 489.788 391.335 490.193 391.478C490.597 391.621 490.96 391.844 491.282 392.149C491.603 392.454 491.857 392.85 492.042 393.337C492.228 393.821 492.321 394.41 492.321 395.102V395.629H486.25V394.516H490.864C490.864 394.125 490.784 393.778 490.625 393.477C490.466 393.172 490.243 392.931 489.954 392.756C489.669 392.58 489.334 392.492 488.95 392.492C488.532 392.492 488.168 392.595 487.856 392.8C487.548 393.003 487.309 393.268 487.14 393.596C486.975 393.921 486.892 394.274 486.892 394.655V395.525C486.892 396.035 486.981 396.469 487.16 396.827C487.342 397.185 487.596 397.459 487.921 397.648C488.246 397.833 488.625 397.926 489.059 397.926C489.341 397.926 489.598 397.886 489.83 397.807C490.062 397.724 490.262 397.601 490.431 397.439C490.6 397.277 490.73 397.076 490.819 396.837L492.226 397.091C492.114 397.505 491.911 397.868 491.62 398.18C491.331 398.488 490.968 398.728 490.531 398.901C490.097 399.07 489.601 399.154 489.044 399.154ZM496.829 399.149C496.212 399.149 495.662 398.992 495.178 398.677C494.698 398.359 494.32 397.906 494.045 397.32C493.773 396.73 493.637 396.022 493.637 395.197C493.637 394.371 493.774 393.665 494.05 393.079C494.328 392.492 494.709 392.043 495.193 391.732C495.677 391.42 496.225 391.264 496.839 391.264C497.313 391.264 497.694 391.344 497.982 391.503C498.274 391.659 498.499 391.841 498.658 392.05C498.821 392.259 498.947 392.442 499.036 392.602H499.126V388.818H500.612V399H499.16V397.812H499.036C498.947 397.974 498.817 398.16 498.648 398.369C498.483 398.577 498.254 398.76 497.962 398.915C497.671 399.071 497.293 399.149 496.829 399.149ZM497.157 397.881C497.584 397.881 497.946 397.769 498.241 397.543C498.539 397.315 498.764 396.998 498.917 396.594C499.073 396.189 499.15 395.719 499.15 395.182C499.15 394.652 499.074 394.187 498.922 393.79C498.769 393.392 498.546 393.082 498.251 392.86C497.956 392.638 497.591 392.527 497.157 392.527C496.709 392.527 496.336 392.643 496.038 392.875C495.74 393.107 495.515 393.424 495.362 393.825C495.213 394.226 495.138 394.678 495.138 395.182C495.138 395.692 495.215 396.151 495.367 396.559C495.519 396.967 495.745 397.29 496.043 397.528C496.345 397.764 496.716 397.881 497.157 397.881Z" fill="#1E1E1E"/>
<path d="M12.5241 293.169C11.7386 293.166 11.0675 292.959 10.5107 292.548C9.95384 292.137 9.52794 291.538 9.23295 290.753C8.93797 289.967 8.79048 289.021 8.79048 287.914C8.79048 286.81 8.93797 285.867 9.23295 285.085C9.53125 284.303 9.95881 283.706 10.5156 283.295C11.0758 282.884 11.7453 282.679 12.5241 282.679C13.303 282.679 13.9709 282.886 14.5277 283.3C15.0845 283.711 15.5104 284.308 15.8054 285.09C16.1037 285.869 16.2528 286.81 16.2528 287.914C16.2528 289.024 16.1054 289.972 15.8104 290.758C15.5154 291.54 15.0895 292.138 14.5327 292.553C13.9759 292.964 13.3063 293.169 12.5241 293.169ZM12.5241 291.842C13.2135 291.842 13.7521 291.505 14.1399 290.832C14.531 290.16 14.7266 289.187 14.7266 287.914C14.7266 287.069 14.6371 286.355 14.4581 285.771C14.2824 285.185 14.0289 284.741 13.6974 284.439C13.3693 284.134 12.9782 283.982 12.5241 283.982C11.8381 283.982 11.2995 284.32 10.9084 284.996C10.5173 285.672 10.3201 286.645 10.3168 287.914C10.3168 288.763 10.4046 289.48 10.5803 290.067C10.7592 290.65 11.0128 291.093 11.3409 291.394C11.669 291.692 12.0634 291.842 12.5241 291.842Z" fill="#1E1E1E" fill-opacity="0.75"/>
<path d="M12.8423 230.818V241H11.3011V232.359H11.2415L8.8054 233.95V232.479L11.3459 230.818H12.8423ZM19.1413 241.169C18.3558 241.166 17.6847 240.959 17.1278 240.548C16.571 240.137 16.1451 239.538 15.8501 238.753C15.5552 237.967 15.4077 237.021 15.4077 235.914C15.4077 234.81 15.5552 233.867 15.8501 233.085C16.1484 232.303 16.576 231.706 17.1328 231.295C17.6929 230.884 18.3625 230.679 19.1413 230.679C19.9202 230.679 20.5881 230.886 21.1449 231.3C21.7017 231.711 22.1276 232.308 22.4226 233.09C22.7209 233.869 22.87 234.81 22.87 235.914C22.87 237.024 22.7225 237.972 22.4276 238.758C22.1326 239.54 21.7067 240.138 21.1499 240.553C20.593 240.964 19.9235 241.169 19.1413 241.169ZM19.1413 239.842C19.8307 239.842 20.3693 239.505 20.7571 238.832C21.1482 238.16 21.3438 237.187 21.3438 235.914C21.3438 235.069 21.2543 234.355 21.0753 233.771C20.8996 233.185 20.6461 232.741 20.3146 232.439C19.9865 232.134 19.5954 231.982 19.1413 231.982C18.4553 231.982 17.9167 232.32 17.5256 232.996C17.1345 233.672 16.9373 234.645 16.9339 235.914C16.9339 236.763 17.0218 237.48 17.1974 238.067C17.3764 238.65 17.63 239.093 17.9581 239.394C18.2862 239.692 18.6806 239.842 19.1413 239.842Z" fill="#1E1E1E" fill-opacity="0.75"/>
<path d="M8.9794 189V187.886L12.4247 184.317C12.7926 183.929 13.0959 183.589 13.3345 183.298C13.5765 183.003 13.7571 182.723 13.8764 182.457C13.9957 182.192 14.0554 181.911 14.0554 181.612C14.0554 181.274 13.9759 180.982 13.8168 180.737C13.6577 180.489 13.4406 180.298 13.1655 180.165C12.8904 180.03 12.5805 179.962 12.2358 179.962C11.8712 179.962 11.553 180.036 11.2812 180.185C11.0095 180.335 10.8007 180.545 10.6548 180.817C10.509 181.089 10.4361 181.407 10.4361 181.771H8.96946C8.96946 181.152 9.11198 180.61 9.39702 180.146C9.68205 179.682 10.0732 179.322 10.5703 179.067C11.0675 178.808 11.6326 178.679 12.2656 178.679C12.9053 178.679 13.4688 178.807 13.956 179.062C14.4465 179.314 14.8293 179.658 15.1044 180.096C15.3795 180.53 15.517 181.021 15.517 181.567C15.517 181.945 15.4458 182.315 15.3033 182.676C15.1641 183.037 14.9205 183.44 14.5724 183.884C14.2244 184.325 13.7405 184.86 13.1207 185.49L11.0973 187.608V187.683H15.6811V189H8.9794ZM21.1101 189.169C20.3246 189.166 19.6534 188.959 19.0966 188.548C18.5398 188.137 18.1139 187.538 17.8189 186.753C17.5239 185.967 17.3764 185.021 17.3764 183.914C17.3764 182.81 17.5239 181.867 17.8189 181.085C18.1172 180.303 18.5447 179.706 19.1016 179.295C19.6617 178.884 20.3312 178.679 21.1101 178.679C21.889 178.679 22.5568 178.886 23.1136 179.3C23.6705 179.711 24.0964 180.308 24.3913 181.09C24.6896 181.869 24.8388 182.81 24.8388 183.914C24.8388 185.024 24.6913 185.972 24.3963 186.758C24.1013 187.54 23.6754 188.138 23.1186 188.553C22.5618 188.964 21.8923 189.169 21.1101 189.169ZM21.1101 187.842C21.7995 187.842 22.3381 187.505 22.7259 186.832C23.117 186.16 23.3125 185.187 23.3125 183.914C23.3125 183.069 23.223 182.355 23.044 181.771C22.8684 181.185 22.6148 180.741 22.2834 180.439C21.9553 180.134 21.5642 179.982 21.1101 179.982C20.424 179.982 19.8854 180.32 19.4943 180.996C19.1032 181.672 18.906 182.645 18.9027 183.914C18.9027 184.763 18.9905 185.48 19.1662 186.067C19.3452 186.65 19.5987 187.093 19.9268 187.394C20.255 187.692 20.6494 187.842 21.1101 187.842Z" fill="#1E1E1E" fill-opacity="0.75"/>
<path d="M12.5241 137.139C11.8414 137.139 11.2315 137.022 10.6946 136.786C10.161 136.551 9.7384 136.224 9.42685 135.807C9.11861 135.386 8.95289 134.899 8.92969 134.345H10.4908C10.5107 134.647 10.6117 134.909 10.794 135.131C10.9796 135.349 11.2216 135.518 11.5199 135.638C11.8182 135.757 12.1496 135.817 12.5142 135.817C12.9152 135.817 13.2699 135.747 13.5781 135.608C13.8897 135.469 14.1333 135.275 14.3089 135.026C14.4846 134.774 14.5724 134.484 14.5724 134.156C14.5724 133.815 14.4846 133.515 14.3089 133.256C14.1366 132.995 13.883 132.789 13.5483 132.64C13.2169 132.491 12.8158 132.416 12.3452 132.416H11.4851V131.163H12.3452C12.723 131.163 13.0545 131.095 13.3395 130.96C13.6278 130.824 13.8532 130.635 14.0156 130.393C14.178 130.147 14.2592 129.861 14.2592 129.533C14.2592 129.218 14.188 128.944 14.0455 128.712C13.9063 128.477 13.7074 128.293 13.4489 128.161C13.1937 128.028 12.892 127.962 12.544 127.962C12.2126 127.962 11.9027 128.023 11.6143 128.146C11.3293 128.265 11.0973 128.437 10.9183 128.663C10.7393 128.885 10.6432 129.152 10.63 129.463H9.14347C9.16004 128.913 9.32244 128.429 9.63068 128.011C9.94223 127.594 10.3532 127.267 10.8636 127.032C11.3741 126.797 11.9408 126.679 12.5639 126.679C13.2169 126.679 13.7803 126.807 14.2543 127.062C14.7315 127.314 15.0994 127.65 15.358 128.071C15.6198 128.492 15.7491 128.953 15.7457 129.453C15.7491 130.023 15.59 130.507 15.2685 130.905C14.9503 131.303 14.526 131.569 13.9957 131.705V131.785C14.6719 131.888 15.1955 132.156 15.5668 132.59C15.9413 133.024 16.1269 133.563 16.1236 134.206C16.1269 134.766 15.9711 135.268 15.6562 135.712C15.3447 136.156 14.9188 136.506 14.3786 136.761C13.8383 137.013 13.2202 137.139 12.5241 137.139ZM21.5476 137.169C20.7621 137.166 20.0909 136.959 19.5341 136.548C18.9773 136.137 18.5514 135.538 18.2564 134.753C17.9614 133.967 17.8139 133.021 17.8139 131.914C17.8139 130.81 17.9614 129.867 18.2564 129.085C18.5547 128.303 18.9822 127.706 19.5391 127.295C20.0992 126.884 20.7687 126.679 21.5476 126.679C22.3265 126.679 22.9943 126.886 23.5511 127.3C24.108 127.711 24.5339 128.308 24.8288 129.09C25.1271 129.869 25.2763 130.81 25.2763 131.914C25.2763 133.024 25.1288 133.972 24.8338 134.758C24.5388 135.54 24.1129 136.138 23.5561 136.553C22.9993 136.964 22.3298 137.169 21.5476 137.169ZM21.5476 135.842C22.237 135.842 22.7756 135.505 23.1634 134.832C23.5545 134.16 23.75 133.187 23.75 131.914C23.75 131.069 23.6605 130.355 23.4815 129.771C23.3059 129.185 23.0523 128.741 22.7209 128.439C22.3928 128.134 22.0017 127.982 21.5476 127.982C20.8615 127.982 20.3229 128.32 19.9318 128.996C19.5407 129.672 19.3435 130.645 19.3402 131.914C19.3402 132.763 19.428 133.48 19.6037 134.067C19.7827 134.65 20.0362 135.093 20.3643 135.394C20.6925 135.692 21.0869 135.842 21.5476 135.842Z" fill="#1E1E1E" fill-opacity="0.75"/>
<path d="M8.76562 83.0114V81.7685L13.1655 74.8182H14.1449V76.6477H13.5234L10.3764 81.6293V81.7088H16.407V83.0114H8.76562ZM13.593 85V82.6335L13.603 82.0668V74.8182H15.0597V85H13.593ZM21.6843 85.169C20.8988 85.1657 20.2276 84.9586 19.6708 84.5476C19.114 84.1366 18.6881 83.5384 18.3931 82.7528C18.0981 81.9673 17.9506 81.0211 17.9506 79.9141C17.9506 78.8104 18.0981 77.8674 18.3931 77.0852C18.6914 76.303 19.119 75.7064 19.6758 75.2955C20.2359 74.8845 20.9054 74.679 21.6843 74.679C22.4632 74.679 23.131 74.8861 23.6879 75.3004C24.2447 75.7114 24.6706 76.308 24.9656 77.0902C25.2638 77.8691 25.413 78.8104 25.413 79.9141C25.413 81.0244 25.2655 81.9723 24.9705 82.7578C24.6755 83.54 24.2496 84.1383 23.6928 84.5526C23.136 84.9635 22.4665 85.169 21.6843 85.169ZM21.6843 83.8416C22.3737 83.8416 22.9123 83.5052 23.3001 82.8324C23.6912 82.1596 23.8867 81.1868 23.8867 79.9141C23.8867 79.0689 23.7972 78.3546 23.6183 77.7713C23.4426 77.1847 23.189 76.7405 22.8576 76.4389C22.5295 76.134 22.1384 75.9815 21.6843 75.9815C20.9982 75.9815 20.4596 76.3196 20.0685 76.9957C19.6774 77.6719 19.4802 78.6446 19.4769 79.9141C19.4769 80.7625 19.5647 81.4801 19.7404 82.0668C19.9194 82.6501 20.1729 83.0926 20.5011 83.3942C20.8292 83.6925 21.2236 83.8416 21.6843 83.8416Z" fill="#1E1E1E" fill-opacity="0.75"/>
<path d="M12.3402 33.1392C11.7171 33.1392 11.157 33.0199 10.6598 32.7812C10.166 32.5393 9.77154 32.2079 9.47656 31.7869C9.18158 31.366 9.02415 30.8854 9.00426 30.3452H10.4957C10.5322 30.7827 10.7261 31.1423 11.0774 31.424C11.4287 31.7057 11.8497 31.8466 12.3402 31.8466C12.7313 31.8466 13.0777 31.7571 13.3793 31.5781C13.6842 31.3958 13.9228 31.1456 14.0952 30.8274C14.2708 30.5092 14.3587 30.1463 14.3587 29.7386C14.3587 29.3243 14.2692 28.9548 14.0902 28.63C13.9112 28.3052 13.6643 28.05 13.3494 27.8643C13.0379 27.6787 12.6799 27.5843 12.2756 27.581C11.9673 27.581 11.6574 27.634 11.3459 27.7401C11.0343 27.8461 10.7824 27.9853 10.5902 28.1577L9.18324 27.9489L9.75497 22.8182H15.353V24.1357H11.0327L10.7095 26.9844H10.7692C10.968 26.7921 11.2315 26.6314 11.5597 26.5021C11.8911 26.3729 12.2457 26.3082 12.6236 26.3082C13.2434 26.3082 13.7952 26.4557 14.2791 26.7507C14.7663 27.0457 15.1491 27.4484 15.4276 27.9588C15.7093 28.4659 15.8485 29.0492 15.8452 29.7088C15.8485 30.3684 15.6993 30.9567 15.3977 31.4737C15.0994 31.9908 14.6851 32.3984 14.1548 32.6967C13.6278 32.9917 13.023 33.1392 12.3402 33.1392ZM21.2058 33.169C20.4203 33.1657 19.7491 32.9586 19.1923 32.5476C18.6355 32.1366 18.2096 31.5384 17.9146 30.7528C17.6196 29.9673 17.4721 29.0211 17.4721 27.9141C17.4721 26.8104 17.6196 25.8674 17.9146 25.0852C18.2129 24.303 18.6404 23.7064 19.1973 23.2955C19.7574 22.8845 20.4269 22.679 21.2058 22.679C21.9847 22.679 22.6525 22.8861 23.2093 23.3004C23.7662 23.7114 24.1921 24.308 24.487 25.0902C24.7853 25.8691 24.9345 26.8104 24.9345 27.9141C24.9345 29.0244 24.787 29.9723 24.492 30.7578C24.197 31.54 23.7711 32.1383 23.2143 32.5526C22.6575 32.9635 21.988 33.169 21.2058 33.169ZM21.2058 31.8416C21.8952 31.8416 22.4338 31.5052 22.8216 30.8324C23.2127 30.1596 23.4082 29.1868 23.4082 27.9141C23.4082 27.0689 23.3187 26.3546 23.1397 25.7713C22.9641 25.1847 22.7105 24.7405 22.3791 24.4389C22.051 24.134 21.6599 23.9815 21.2058 23.9815C20.5197 23.9815 19.9811 24.3196 19.59 24.9957C19.1989 25.6719 19.0017 26.6446 18.9984 27.9141C18.9984 28.7625 19.0862 29.4801 19.2619 30.0668C19.4409 30.6501 19.6944 31.0926 20.0225 31.3942C20.3507 31.6925 20.7451 31.8416 21.2058 31.8416Z" fill="#1E1E1E" fill-opacity="0.75"/>
<path d="M191.119 309.818H192.983L196.224 317.733H196.344L199.585 309.818H201.45V320H199.988V312.632H199.893L196.891 319.985H195.678L192.675 312.627H192.58V320H191.119V309.818ZM206.78 320.154C206.064 320.154 205.44 319.99 204.906 319.662C204.372 319.334 203.958 318.875 203.663 318.285C203.368 317.695 203.221 317.005 203.221 316.217C203.221 315.424 203.368 314.732 203.663 314.138C203.958 313.545 204.372 313.085 204.906 312.756C205.44 312.428 206.064 312.264 206.78 312.264C207.496 312.264 208.121 312.428 208.655 312.756C209.188 313.085 209.603 313.545 209.898 314.138C210.193 314.732 210.34 315.424 210.34 316.217C210.34 317.005 210.193 317.695 209.898 318.285C209.603 318.875 209.188 319.334 208.655 319.662C208.121 319.99 207.496 320.154 206.78 320.154ZM206.785 318.906C207.249 318.906 207.634 318.784 207.939 318.538C208.244 318.293 208.469 317.967 208.615 317.559C208.764 317.151 208.839 316.702 208.839 316.212C208.839 315.724 208.764 315.277 208.615 314.869C208.469 314.458 208.244 314.129 207.939 313.88C207.634 313.631 207.249 313.507 206.785 313.507C206.318 313.507 205.93 313.631 205.622 313.88C205.317 314.129 205.09 314.458 204.941 314.869C204.795 315.277 204.722 315.724 204.722 316.212C204.722 316.702 204.795 317.151 204.941 317.559C205.09 317.967 205.317 318.293 205.622 318.538C205.93 318.784 206.318 318.906 206.785 318.906ZM213.486 315.466V320H211.999V312.364H213.426V313.607H213.521C213.696 313.202 213.971 312.877 214.346 312.632C214.724 312.387 215.199 312.264 215.773 312.264C216.293 312.264 216.749 312.374 217.14 312.592C217.531 312.808 217.834 313.129 218.05 313.557C218.265 313.984 218.373 314.513 218.373 315.143V320H216.886V315.322C216.886 314.768 216.742 314.336 216.454 314.024C216.165 313.709 215.769 313.552 215.266 313.552C214.921 313.552 214.614 313.626 214.346 313.776C214.081 313.925 213.87 314.143 213.714 314.432C213.562 314.717 213.486 315.062 213.486 315.466Z" fill="#1E1E1E" fill-opacity="0.75"/>
<path d="M309.616 311.141V309.818H317.496V311.141H314.32V320H312.788V311.141H309.616ZM322.917 316.833V312.364H324.408V320H322.947V318.678H322.867C322.691 319.085 322.41 319.425 322.022 319.697C321.637 319.965 321.158 320.099 320.585 320.099C320.095 320.099 319.66 319.992 319.282 319.776C318.908 319.558 318.613 319.234 318.398 318.807C318.185 318.379 318.079 317.851 318.079 317.221V312.364H319.566V317.042C319.566 317.562 319.71 317.977 319.998 318.285C320.287 318.593 320.661 318.747 321.122 318.747C321.4 318.747 321.677 318.678 321.952 318.538C322.231 318.399 322.461 318.189 322.643 317.907C322.829 317.625 322.92 317.267 322.917 316.833ZM329.697 320.154C328.944 320.154 328.296 319.993 327.753 319.672C327.213 319.347 326.795 318.891 326.5 318.305C326.208 317.715 326.062 317.024 326.062 316.232C326.062 315.449 326.208 314.76 326.5 314.163C326.795 313.567 327.206 313.101 327.733 312.766C328.263 312.432 328.883 312.264 329.592 312.264C330.023 312.264 330.441 312.335 330.845 312.478C331.25 312.621 331.612 312.844 331.934 313.149C332.255 313.454 332.509 313.85 332.695 314.337C332.88 314.821 332.973 315.41 332.973 316.102V316.629H326.903V315.516H331.516C331.516 315.125 331.437 314.778 331.278 314.477C331.119 314.172 330.895 313.931 330.607 313.756C330.321 313.58 329.987 313.492 329.602 313.492C329.185 313.492 328.82 313.595 328.509 313.8C328.2 314.003 327.962 314.268 327.793 314.596C327.627 314.921 327.544 315.274 327.544 315.655V316.525C327.544 317.035 327.634 317.469 327.812 317.827C327.995 318.185 328.248 318.459 328.573 318.648C328.898 318.833 329.277 318.926 329.712 318.926C329.993 318.926 330.25 318.886 330.482 318.807C330.714 318.724 330.915 318.601 331.084 318.439C331.253 318.277 331.382 318.076 331.472 317.837L332.879 318.091C332.766 318.505 332.564 318.868 332.272 319.18C331.984 319.488 331.621 319.728 331.183 319.901C330.749 320.07 330.254 320.154 329.697 320.154Z" fill="#1E1E1E" fill-opacity="0.75"/>
<path d="M425.112 320L422.288 309.818H423.904L425.888 317.703H425.982L428.045 309.818H429.646L431.71 317.708H431.804L433.783 309.818H435.403L432.575 320H431.028L428.886 312.374H428.806L426.663 320H425.112ZM439.224 320.154C438.472 320.154 437.824 319.993 437.28 319.672C436.74 319.347 436.322 318.891 436.027 318.305C435.736 317.715 435.59 317.024 435.59 316.232C435.59 315.449 435.736 314.76 436.027 314.163C436.322 313.567 436.733 313.101 437.26 312.766C437.791 312.432 438.41 312.264 439.12 312.264C439.551 312.264 439.968 312.335 440.373 312.478C440.777 312.621 441.14 312.844 441.461 313.149C441.783 313.454 442.036 313.85 442.222 314.337C442.408 314.821 442.5 315.41 442.5 316.102V316.629H436.43V315.516H441.044C441.044 315.125 440.964 314.778 440.805 314.477C440.646 314.172 440.422 313.931 440.134 313.756C439.849 313.58 439.514 313.492 439.13 313.492C438.712 313.492 438.347 313.595 438.036 313.8C437.728 314.003 437.489 314.268 437.32 314.596C437.154 314.921 437.071 315.274 437.071 315.655V316.525C437.071 317.035 437.161 317.469 437.34 317.827C437.522 318.185 437.776 318.459 438.1 318.648C438.425 318.833 438.805 318.926 439.239 318.926C439.521 318.926 439.778 318.886 440.01 318.807C440.242 318.724 440.442 318.601 440.611 318.439C440.78 318.277 440.909 318.076 440.999 317.837L442.406 318.091C442.293 318.505 442.091 318.868 441.799 319.18C441.511 319.488 441.148 319.728 440.711 319.901C440.276 320.07 439.781 320.154 439.224 320.154ZM447.008 320.149C446.392 320.149 445.842 319.992 445.358 319.677C444.877 319.359 444.499 318.906 444.224 318.32C443.952 317.73 443.817 317.022 443.817 316.197C443.817 315.371 443.954 314.665 444.229 314.079C444.508 313.492 444.889 313.043 445.373 312.732C445.857 312.42 446.405 312.264 447.018 312.264C447.492 312.264 447.873 312.344 448.162 312.503C448.453 312.659 448.679 312.841 448.838 313.05C449 313.259 449.126 313.442 449.216 313.602H449.305V309.818H450.792V320H449.34V318.812H449.216C449.126 318.974 448.997 319.16 448.828 319.369C448.662 319.577 448.434 319.76 448.142 319.915C447.85 320.071 447.472 320.149 447.008 320.149ZM447.336 318.881C447.764 318.881 448.125 318.769 448.42 318.543C448.719 318.315 448.944 317.998 449.096 317.594C449.252 317.189 449.33 316.719 449.33 316.182C449.33 315.652 449.254 315.187 449.101 314.79C448.949 314.392 448.725 314.082 448.43 313.86C448.135 313.638 447.771 313.527 447.336 313.527C446.889 313.527 446.516 313.643 446.218 313.875C445.92 314.107 445.694 314.424 445.542 314.825C445.393 315.226 445.318 315.678 445.318 316.182C445.318 316.692 445.394 317.151 445.547 317.559C445.699 317.967 445.925 318.29 446.223 318.528C446.524 318.764 446.896 318.881 447.336 318.881Z" fill="#1E1E1E" fill-opacity="0.75"/>
<path d="M543.616 311.141V309.818H551.496V311.141H548.32V320H546.788V311.141H543.616ZM554.605 315.466V320H553.118V309.818H554.585V313.607H554.68C554.858 313.196 555.132 312.869 555.5 312.627C555.868 312.385 556.348 312.264 556.942 312.264C557.465 312.264 557.923 312.372 558.314 312.587C558.708 312.803 559.013 313.124 559.229 313.552C559.447 313.976 559.557 314.506 559.557 315.143V320H558.07V315.322C558.07 314.762 557.926 314.327 557.638 314.019C557.349 313.708 556.948 313.552 556.434 313.552C556.083 313.552 555.768 313.626 555.49 313.776C555.215 313.925 554.998 314.143 554.839 314.432C554.683 314.717 554.605 315.062 554.605 315.466ZM566.378 316.833V312.364H567.869V320H566.407V318.678H566.328C566.152 319.085 565.871 319.425 565.483 319.697C565.098 319.965 564.619 320.099 564.046 320.099C563.555 320.099 563.121 319.992 562.743 319.776C562.369 319.558 562.074 319.234 561.858 318.807C561.646 318.379 561.54 317.851 561.54 317.221V312.364H563.027V317.042C563.027 317.562 563.171 317.977 563.459 318.285C563.748 318.593 564.122 318.747 564.583 318.747C564.861 318.747 565.138 318.678 565.413 318.538C565.692 318.399 565.922 318.189 566.104 317.907C566.29 317.625 566.381 317.267 566.378 316.833Z" fill="#1E1E1E" fill-opacity="0.75"/>
<path d="M659.119 320V309.818H665.433V311.141H660.655V314.243H664.98V315.56H660.655V320H659.119ZM667.107 320V312.364H668.544V313.577H668.623C668.762 313.166 669.008 312.843 669.359 312.607C669.713 312.369 670.115 312.249 670.562 312.249C670.655 312.249 670.764 312.253 670.89 312.259C671.019 312.266 671.12 312.274 671.193 312.284V313.706C671.134 313.689 671.028 313.671 670.875 313.651C670.723 313.628 670.57 313.616 670.418 313.616C670.066 313.616 669.753 313.691 669.478 313.84C669.206 313.986 668.991 314.19 668.832 314.452C668.673 314.71 668.593 315.005 668.593 315.337V320H667.107ZM672.48 320V312.364H673.966V320H672.48ZM673.23 311.185C672.972 311.185 672.75 311.099 672.564 310.927C672.382 310.751 672.291 310.542 672.291 310.3C672.291 310.055 672.382 309.846 672.564 309.674C672.75 309.498 672.972 309.411 673.23 309.411C673.489 309.411 673.709 309.498 673.892 309.674C674.077 309.846 674.17 310.055 674.17 310.3C674.17 310.542 674.077 310.751 673.892 310.927C673.709 311.099 673.489 311.185 673.23 311.185Z" fill="#1E1E1E" fill-opacity="0.75"/>
<path d="M765.672 312.493C765.619 312.022 765.4 311.658 765.016 311.399C764.631 311.137 764.147 311.006 763.564 311.006C763.146 311.006 762.785 311.073 762.48 311.205C762.175 311.335 761.938 311.513 761.769 311.742C761.603 311.968 761.521 312.224 761.521 312.513C761.521 312.755 761.577 312.964 761.69 313.139C761.806 313.315 761.956 313.462 762.142 313.582C762.331 313.698 762.533 313.795 762.749 313.875C762.964 313.951 763.171 314.014 763.37 314.064L764.364 314.322C764.689 314.402 765.022 314.51 765.364 314.646C765.705 314.781 766.022 314.96 766.313 315.183C766.605 315.405 766.84 315.68 767.019 316.008C767.201 316.336 767.293 316.729 767.293 317.186C767.293 317.763 767.143 318.275 766.845 318.722C766.55 319.17 766.121 319.523 765.558 319.781C764.997 320.04 764.32 320.169 763.524 320.169C762.762 320.169 762.102 320.048 761.545 319.806C760.989 319.564 760.553 319.221 760.238 318.777C759.923 318.33 759.749 317.799 759.716 317.186H761.257C761.287 317.554 761.406 317.861 761.615 318.106C761.827 318.348 762.097 318.528 762.425 318.648C762.757 318.764 763.12 318.822 763.514 318.822C763.948 318.822 764.335 318.754 764.673 318.618C765.014 318.479 765.282 318.286 765.478 318.041C765.674 317.793 765.771 317.503 765.771 317.171C765.771 316.87 765.685 316.623 765.513 316.43C765.344 316.238 765.113 316.079 764.822 315.953C764.533 315.827 764.207 315.716 763.842 315.62L762.639 315.292C761.824 315.07 761.178 314.743 760.7 314.312C760.226 313.882 759.989 313.312 759.989 312.602C759.989 312.016 760.148 311.504 760.467 311.066C760.785 310.629 761.216 310.289 761.759 310.047C762.303 309.802 762.916 309.679 763.599 309.679C764.288 309.679 764.896 309.8 765.423 310.042C765.954 310.284 766.371 310.617 766.676 311.041C766.981 311.462 767.14 311.946 767.153 312.493H765.672ZM771.231 320.169C770.747 320.169 770.31 320.08 769.919 319.901C769.528 319.718 769.218 319.455 768.989 319.11C768.764 318.765 768.651 318.343 768.651 317.842C768.651 317.411 768.734 317.057 768.9 316.778C769.065 316.5 769.289 316.28 769.571 316.117C769.853 315.955 770.167 315.832 770.515 315.749C770.863 315.666 771.218 315.603 771.579 315.56C772.037 315.507 772.408 315.464 772.693 315.431C772.978 315.395 773.185 315.337 773.314 315.257C773.444 315.178 773.508 315.048 773.508 314.869V314.835C773.508 314.4 773.386 314.064 773.14 313.825C772.898 313.587 772.537 313.467 772.057 313.467C771.556 313.467 771.162 313.578 770.873 313.8C770.588 314.019 770.391 314.263 770.282 314.531L768.885 314.213C769.05 313.749 769.292 313.375 769.611 313.089C769.932 312.801 770.302 312.592 770.719 312.463C771.137 312.33 771.576 312.264 772.037 312.264C772.342 312.264 772.665 312.301 773.006 312.374C773.351 312.443 773.672 312.572 773.971 312.761C774.272 312.95 774.519 313.22 774.711 313.572C774.904 313.92 775 314.372 775 314.929V320H773.548V318.956H773.488C773.392 319.148 773.248 319.337 773.056 319.523C772.864 319.708 772.617 319.862 772.315 319.985C772.014 320.108 771.652 320.169 771.231 320.169ZM771.555 318.976C771.965 318.976 772.317 318.895 772.608 318.732C772.903 318.57 773.127 318.358 773.28 318.096C773.435 317.831 773.513 317.547 773.513 317.246V316.261C773.46 316.314 773.358 316.364 773.205 316.411C773.056 316.454 772.885 316.492 772.693 316.525C772.501 316.555 772.314 316.583 772.131 316.609C771.949 316.633 771.796 316.652 771.674 316.669C771.385 316.705 771.122 316.767 770.883 316.853C770.648 316.939 770.459 317.063 770.317 317.226C770.177 317.385 770.108 317.597 770.108 317.862C770.108 318.23 770.244 318.509 770.515 318.697C770.787 318.883 771.134 318.976 771.555 318.976ZM780.544 312.364V313.557H776.373V312.364H780.544ZM777.492 310.534H778.978V317.758C778.978 318.046 779.021 318.263 779.108 318.409C779.194 318.552 779.305 318.649 779.441 318.702C779.58 318.752 779.731 318.777 779.893 318.777C780.012 318.777 780.117 318.769 780.206 318.752C780.296 318.736 780.365 318.722 780.415 318.712L780.684 319.94C780.597 319.973 780.475 320.007 780.316 320.04C780.157 320.076 779.958 320.096 779.719 320.099C779.328 320.106 778.963 320.036 778.625 319.891C778.287 319.745 778.014 319.519 777.805 319.214C777.596 318.91 777.492 318.527 777.492 318.066V310.534Z" fill="#1E1E1E" fill-opacity="0.75"/>
<line x1="42" y1="292.038" x2="817" y2="292.038" stroke="#E2E2E2"/>
<line y1="-0.5" x2="282.538" y2="-0.5" transform="matrix(-0.000516681 -1 1 -0.000489061 42.354 292.538)" stroke="#E2E2E2"/>
<path d="M406 248C406 245.791 407.791 244 410 244H414C416.209 244 418 245.791 418 248V293H406V248Z" fill="#853F9D"/>
<path d="M59 224C59 221.791 60.7909 220 63 220H67C69.2091 220 71 221.791 71 224V293H59V224Z" fill="#853F9D"/>
<path d="M171 231C171 228.791 172.791 227 175 227H179C181.209 227 183 228.791 183 231V293H171V231Z" fill="#853F9D"/>
<path d="M289 245C289 242.791 290.791 241 293 241H297C299.209 241 301 242.791 301 245V293H289V245Z" fill="#853F9D"/>
<path d="M524 248C524 245.791 525.791 244 528 244H532C534.209 244 536 245.791 536 248V293H524V248Z" fill="#853F9D"/>
<path d="M634 265C634 262.791 635.791 261 638 261H642C644.209 261 646 262.791 646 265V293H634V265Z" fill="#853F9D"/>
<path d="M738 231C738 228.791 739.791 227 742 227H746C748.209 227 750 228.791 750 231V293H738V231Z" fill="#853F9D"/>
<path d="M432 89C432 86.7909 433.791 85 436 85H440C442.209 85 444 86.7909 444 89V293H432V89Z" fill="#C9CC35"/>
<path d="M85 37C85 34.7909 86.7909 33 89 33H93C95.2091 33 97 34.7909 97 37V293H85V37Z" fill="#C9CC35"/>
<path d="M197 75C197 72.7909 198.791 71 201 71H205C207.209 71 209 72.7909 209 75V293H197V75Z" fill="#C9CC35"/>
<path d="M315 89C315 86.7909 316.791 85 319 85H323C325.209 85 327 86.7909 327 89V293H315V89Z" fill="#C9CC35"/>
<path d="M550 37C550 34.7909 551.791 33 554 33H558C560.209 33 562 34.7909 562 37V293H550V37Z" fill="#C9CC35"/>
<path d="M660 48C660 45.7909 661.791 44 664 44H668C670.209 44 672 45.7909 672 48V293H660V48Z" fill="#C9CC35"/>
<path d="M764 92C764 89.7909 765.791 88 768 88H772C774.209 88 776 89.7909 776 92V293H764V92Z" fill="#C9CC35"/>
<path d="M458 284C458 281.791 459.791 280 462 280H466C468.209 280 470 281.791 470 284V293H458V284Z" fill="#35CC5F"/>
<path d="M111 277C111 274.791 112.791 273 115 273H119C121.209 273 123 274.791 123 277V293H111V277Z" fill="#35CC5F"/>
<path d="M223 277C223 274.791 224.791 273 227 273H231C233.209 273 235 274.791 235 277V293H223V277Z" fill="#35CC5F"/>
<path d="M341 277C341 274.791 342.791 273 345 273H349C351.209 273 353 274.791 353 277V293H341V277Z" fill="#35CC5F"/>
<path d="M576 284C576 281.791 577.791 280 580 280H584C586.209 280 588 281.791 588 284V293H576V284Z" fill="#35CC5F"/>
<path d="M686 284C686 281.791 687.791 280 690 280H694C696.209 280 698 281.791 698 284V293H686V284Z" fill="#35CC5F"/>
<path d="M790 284C790 281.791 791.791 280 794 280H798C800.209 280 802 281.791 802 284V293H790V284Z" fill="#35CC5F"/>
<rect x="42" y="386" width="41" height="15" fill="#853F9D"/>
<rect x="213" y="386" width="41" height="15" fill="#C9CC35"/>
<rect x="387" y="386" width="41" height="15" fill="#35CC5F"/>
<path d="M439.828 92.5795C439.866 92.1712 440.353 91.9798 440.659 92.2528L448.002 98.8017C448.28 99.0497 448.199 99.5038 447.852 99.6402L439.595 102.888C439.248 103.024 438.879 102.747 438.914 102.376L439.828 92.5795Z" fill="white" stroke="black"/>
<rect x="387" width="99" height="72" rx="7" fill="#040980" fill-opacity="0.38"/>
<path d="M452.721 17.1108V15.6442L457.041 8.81818H458.264V10.9062H457.518L454.61 15.5149V15.5945H460.641V17.1108H452.721ZM457.578 19V16.6634L457.598 16.0071V8.81818H459.338V19H457.578ZM465.993 19.1939C465.174 19.1939 464.471 18.9867 463.885 18.5724C463.301 18.1548 462.852 17.5533 462.537 16.7678C462.226 15.9789 462.07 15.0294 462.07 13.919C462.073 12.8087 462.231 11.8641 462.542 11.0852C462.857 10.303 463.306 9.70644 463.89 9.29545C464.476 8.88447 465.177 8.67898 465.993 8.67898C466.808 8.67898 467.509 8.88447 468.096 9.29545C468.682 9.70644 469.131 10.303 469.443 11.0852C469.758 11.8674 469.915 12.812 469.915 13.919C469.915 15.0327 469.758 15.9839 469.443 16.7727C469.131 17.5582 468.682 18.1581 468.096 18.5724C467.512 18.9867 466.811 19.1939 465.993 19.1939ZM465.993 17.6378C466.629 17.6378 467.131 17.3246 467.499 16.6982C467.87 16.0684 468.056 15.142 468.056 13.919C468.056 13.1103 467.971 12.4309 467.802 11.8807C467.633 11.3305 467.395 10.9162 467.086 10.6378C466.778 10.3561 466.413 10.2152 465.993 10.2152C465.359 10.2152 464.859 10.5301 464.491 11.1598C464.123 11.7862 463.938 12.706 463.934 13.919C463.931 14.7311 464.012 15.4138 464.178 15.9673C464.347 16.5208 464.586 16.9384 464.894 17.2202C465.202 17.4986 465.568 17.6378 465.993 17.6378Z" fill="#1E1E1E"/>
<path d="M397.057 17V8.27273H400.006C400.69 8.27273 401.25 8.39631 401.685 8.64347C402.122 8.88778 402.446 9.21875 402.656 9.63636C402.866 10.054 402.972 10.5199 402.972 11.0341C402.972 11.5483 402.866 12.0156 402.656 12.4361C402.449 12.8565 402.128 13.1918 401.693 13.4418C401.259 13.6889 400.702 13.8125 400.023 13.8125H397.909V12.875H399.989C400.457 12.875 400.834 12.794 401.118 12.6321C401.402 12.4702 401.608 12.2514 401.736 11.9759C401.866 11.6974 401.932 11.3835 401.932 11.0341C401.932 10.6847 401.866 10.3722 401.736 10.0966C401.608 9.82102 401.401 9.60511 401.114 9.44886C400.827 9.28977 400.446 9.21023 399.972 9.21023H398.114V17H397.057ZM407.126 17.1364C406.536 17.1364 406.017 16.9957 405.571 16.7145C405.128 16.4332 404.781 16.0398 404.531 15.5341C404.284 15.0284 404.161 14.4375 404.161 13.7614C404.161 13.0795 404.284 12.4844 404.531 11.9759C404.781 11.4673 405.128 11.0724 405.571 10.7912C406.017 10.5099 406.536 10.3693 407.126 10.3693C407.717 10.3693 408.234 10.5099 408.678 10.7912C409.124 11.0724 409.47 11.4673 409.717 11.9759C409.967 12.4844 410.092 13.0795 410.092 13.7614C410.092 14.4375 409.967 15.0284 409.717 15.5341C409.47 16.0398 409.124 16.4332 408.678 16.7145C408.234 16.9957 407.717 17.1364 407.126 17.1364ZM407.126 16.233C407.575 16.233 407.945 16.1179 408.234 15.8878C408.524 15.6577 408.739 15.3551 408.878 14.9801C409.017 14.6051 409.087 14.1989 409.087 13.7614C409.087 13.3239 409.017 12.9162 408.878 12.5384C408.739 12.1605 408.524 11.8551 408.234 11.6222C407.945 11.3892 407.575 11.2727 407.126 11.2727C406.678 11.2727 406.308 11.3892 406.018 11.6222C405.729 11.8551 405.514 12.1605 405.375 12.5384C405.236 12.9162 405.166 13.3239 405.166 13.7614C405.166 14.1989 405.236 14.6051 405.375 14.9801C405.514 15.3551 405.729 15.6577 406.018 15.8878C406.308 16.1179 406.678 16.233 407.126 16.233ZM411.627 17V10.4545H412.633V17H411.627ZM412.139 9.36364C411.943 9.36364 411.774 9.29688 411.632 9.16335C411.493 9.02983 411.423 8.86932 411.423 8.68182C411.423 8.49432 411.493 8.33381 411.632 8.20028C411.774 8.06676 411.943 8 412.139 8C412.335 8 412.502 8.06676 412.642 8.20028C412.784 8.33381 412.855 8.49432 412.855 8.68182C412.855 8.86932 412.784 9.02983 412.642 9.16335C412.502 9.29688 412.335 9.36364 412.139 9.36364ZM415.481 13.0625V17H414.475V10.4545H415.447V11.4773H415.532C415.685 11.1449 415.918 10.8778 416.231 10.6761C416.543 10.4716 416.947 10.3693 417.441 10.3693C417.884 10.3693 418.272 10.4602 418.604 10.642C418.937 10.821 419.195 11.0938 419.38 11.4602C419.565 11.8239 419.657 12.2841 419.657 12.8409V17H418.651V12.9091C418.651 12.3949 418.518 11.9943 418.251 11.7074C417.984 11.4176 417.617 11.2727 417.151 11.2727C416.83 11.2727 416.543 11.3423 416.29 11.4815C416.04 11.6207 415.843 11.8239 415.698 12.0909C415.553 12.358 415.481 12.6818 415.481 13.0625ZM424.341 10.4545V11.3068H420.949V10.4545H424.341ZM421.938 8.88636H422.944V15.125C422.944 15.4091 422.985 15.6222 423.067 15.7642C423.152 15.9034 423.26 15.9972 423.391 16.0455C423.525 16.0909 423.665 16.1136 423.813 16.1136C423.924 16.1136 424.015 16.108 424.086 16.0966C424.157 16.0824 424.213 16.071 424.256 16.0625L424.461 16.9659C424.392 16.9915 424.297 17.017 424.175 17.0426C424.053 17.071 423.898 17.0852 423.711 17.0852C423.426 17.0852 423.148 17.0241 422.875 16.902C422.605 16.7798 422.381 16.5938 422.202 16.3438C422.026 16.0938 421.938 15.7784 421.938 15.3977V8.88636ZM430.373 11.9205L429.47 12.1761C429.413 12.0256 429.329 11.8793 429.218 11.7372C429.11 11.5923 428.963 11.473 428.775 11.3793C428.588 11.2855 428.348 11.2386 428.055 11.2386C427.654 11.2386 427.321 11.331 427.054 11.5156C426.789 11.6974 426.657 11.929 426.657 12.2102C426.657 12.4602 426.748 12.6577 426.93 12.8026C427.112 12.9474 427.396 13.0682 427.782 13.1648L428.754 13.4034C429.339 13.5455 429.775 13.7628 430.062 14.0554C430.349 14.3452 430.493 14.7187 430.493 15.1761C430.493 15.5511 430.385 15.8864 430.169 16.1818C429.956 16.4773 429.657 16.7102 429.274 16.8807C428.89 17.0511 428.444 17.1364 427.936 17.1364C427.268 17.1364 426.716 16.9915 426.278 16.7017C425.841 16.4119 425.564 15.9886 425.447 15.4318L426.402 15.1932C426.493 15.5455 426.664 15.8097 426.917 15.9858C427.173 16.1619 427.507 16.25 427.919 16.25C428.387 16.25 428.76 16.1506 429.035 15.9517C429.314 15.75 429.453 15.5085 429.453 15.2273C429.453 15 429.373 14.8097 429.214 14.6562C429.055 14.5 428.811 14.3835 428.481 14.3068L427.39 14.0511C426.791 13.9091 426.35 13.6889 426.069 13.3906C425.791 13.0895 425.652 12.7131 425.652 12.2614C425.652 11.892 425.755 11.5653 425.963 11.2812C426.173 10.9972 426.458 10.7741 426.819 10.6122C427.183 10.4503 427.595 10.3693 428.055 10.3693C428.703 10.3693 429.211 10.5114 429.581 10.7955C429.953 11.0795 430.217 11.4545 430.373 11.9205Z" fill="#1E1E1E"/>
<path d="M397.415 39H396.307L399.511 30.2727H400.602L403.807 39H402.699L400.091 31.6534H400.023L397.415 39ZM397.824 35.5909H402.29V36.5284H397.824V35.5909ZM407.501 39.1364C406.956 39.1364 406.474 38.9986 406.057 38.723C405.639 38.4446 405.313 38.0526 405.077 37.5469C404.841 37.0384 404.723 36.4375 404.723 35.7443C404.723 35.0568 404.841 34.4602 405.077 33.9545C405.313 33.4489 405.641 33.0582 406.061 32.7827C406.482 32.5071 406.967 32.3693 407.518 32.3693C407.945 32.3693 408.281 32.4403 408.528 32.5824C408.778 32.7216 408.969 32.8807 409.099 33.0597C409.233 33.2358 409.337 33.3807 409.411 33.4943H409.496V30.2727H410.501V39H409.53V37.9943H409.411C409.337 38.1136 409.232 38.2642 409.095 38.446C408.959 38.625 408.764 38.7855 408.511 38.9276C408.259 39.0668 407.922 39.1364 407.501 39.1364ZM407.638 38.233C408.041 38.233 408.382 38.1278 408.661 37.9176C408.939 37.7045 409.151 37.4105 409.295 37.0355C409.44 36.6577 409.513 36.2216 409.513 35.7273C409.513 35.2386 409.442 34.8111 409.3 34.4446C409.158 34.0753 408.947 33.7884 408.669 33.5838C408.391 33.3764 408.047 33.2727 407.638 33.2727C407.212 33.2727 406.857 33.3821 406.572 33.6009C406.291 33.8168 406.08 34.1108 405.938 34.483C405.798 34.8523 405.729 35.267 405.729 35.7273C405.729 36.1932 405.8 36.6165 405.942 36.9972C406.087 37.375 406.3 37.6761 406.581 37.9006C406.865 38.1222 407.217 38.233 407.638 38.233ZM417.119 33.9205L416.216 34.1761C416.159 34.0256 416.075 33.8793 415.964 33.7372C415.857 33.5923 415.709 33.473 415.521 33.3793C415.334 33.2855 415.094 33.2386 414.801 33.2386C414.401 33.2386 414.067 33.331 413.8 33.5156C413.536 33.6974 413.403 33.929 413.403 34.2102C413.403 34.4602 413.494 34.6577 413.676 34.8026C413.858 34.9474 414.142 35.0682 414.528 35.1648L415.5 35.4034C416.085 35.5455 416.521 35.7628 416.808 36.0554C417.095 36.3452 417.239 36.7187 417.239 37.1761C417.239 37.5511 417.131 37.8864 416.915 38.1818C416.702 38.4773 416.403 38.7102 416.02 38.8807C415.636 39.0511 415.19 39.1364 414.682 39.1364C414.014 39.1364 413.462 38.9915 413.024 38.7017C412.587 38.4119 412.31 37.9886 412.193 37.4318L413.148 37.1932C413.239 37.5455 413.411 37.8097 413.663 37.9858C413.919 38.1619 414.253 38.25 414.665 38.25C415.134 38.25 415.506 38.1506 415.781 37.9517C416.06 37.75 416.199 37.5085 416.199 37.2273C416.199 37 416.119 36.8097 415.96 36.6562C415.801 36.5 415.557 36.3835 415.227 36.3068L414.136 36.0511C413.537 35.9091 413.097 35.6889 412.815 35.3906C412.537 35.0895 412.398 34.7131 412.398 34.2614C412.398 33.892 412.501 33.5653 412.709 33.2812C412.919 32.9972 413.205 32.7741 413.565 32.6122C413.929 32.4503 414.341 32.3693 414.801 32.3693C415.449 32.3693 415.957 32.5114 416.327 32.7955C416.699 33.0795 416.963 33.4545 417.119 33.9205Z" fill="#1E1E1E"/>
<path d="M397.415 52.2727L400.006 59.6193H400.108L402.699 52.2727H403.807L400.602 61H399.511L396.307 52.2727H397.415ZM405.166 61V52.2727H408.115C408.8 52.2727 409.359 52.3963 409.794 52.6435C410.232 52.8878 410.555 53.2188 410.766 53.6364C410.976 54.054 411.081 54.5199 411.081 55.0341C411.081 55.5483 410.976 56.0156 410.766 56.4361C410.558 56.8565 410.237 57.1918 409.803 57.4418C409.368 57.6889 408.811 57.8125 408.132 57.8125H406.018V56.875H408.098C408.567 56.875 408.943 56.794 409.227 56.6321C409.511 56.4702 409.717 56.2514 409.845 55.9759C409.976 55.6974 410.041 55.3835 410.041 55.0341C410.041 54.6847 409.976 54.3722 409.845 54.0966C409.717 53.821 409.51 53.6051 409.223 53.4489C408.936 53.2898 408.555 53.2102 408.081 53.2102H406.223V61H405.166ZM419.704 52.2727V61H418.681L413.925 54.1477H413.84V61H412.783V52.2727H413.806L418.579 59.142H418.664V52.2727H419.704Z" fill="#1E1E1E"/>
<path d="M464.524 41.1392C463.785 41.1392 463.129 41.0149 462.555 40.7663C461.985 40.5178 461.538 40.178 461.213 39.7472C460.892 39.313 460.732 38.8208 460.736 38.2706C460.732 37.843 460.825 37.4503 461.014 37.0923C461.203 36.7344 461.458 36.4361 461.78 36.1974C462.105 35.9555 462.466 35.8014 462.864 35.7351V35.6655C462.34 35.5495 461.916 35.2827 461.591 34.8651C461.269 34.4441 461.11 33.9586 461.114 33.4084C461.11 32.8847 461.256 32.4174 461.551 32.0064C461.846 31.5954 462.25 31.2723 462.764 31.0369C463.278 30.7983 463.865 30.679 464.524 30.679C465.177 30.679 465.759 30.7983 466.269 31.0369C466.783 31.2723 467.187 31.5954 467.482 32.0064C467.781 32.4174 467.93 32.8847 467.93 33.4084C467.93 33.9586 467.766 34.4441 467.438 34.8651C467.113 35.2827 466.693 35.5495 466.18 35.6655V35.7351C466.577 35.8014 466.935 35.9555 467.254 36.1974C467.575 36.4361 467.83 36.7344 468.019 37.0923C468.211 37.4503 468.308 37.843 468.308 38.2706C468.308 38.8208 468.145 39.313 467.82 39.7472C467.496 40.178 467.048 40.5178 466.478 40.7663C465.911 41.0149 465.26 41.1392 464.524 41.1392ZM464.524 39.7173C464.905 39.7173 465.237 39.6527 465.518 39.5234C465.8 39.3909 466.019 39.2053 466.175 38.9666C466.33 38.728 466.41 38.4529 466.413 38.1413C466.41 37.8165 466.326 37.5298 466.16 37.2812C465.997 37.0294 465.774 36.8321 465.489 36.6896C465.207 36.5471 464.885 36.4759 464.524 36.4759C464.16 36.4759 463.835 36.5471 463.55 36.6896C463.265 36.8321 463.039 37.0294 462.874 37.2812C462.711 37.5298 462.632 37.8165 462.635 38.1413C462.632 38.4529 462.708 38.728 462.864 38.9666C463.019 39.2019 463.238 39.3859 463.52 39.5185C463.805 39.651 464.14 39.7173 464.524 39.7173ZM464.524 35.0788C464.836 35.0788 465.111 35.0159 465.349 34.8899C465.591 34.764 465.782 34.5883 465.921 34.3629C466.06 34.1375 466.132 33.8774 466.135 33.5824C466.132 33.2907 466.062 33.0355 465.926 32.8168C465.79 32.5947 465.601 32.424 465.359 32.3047C465.117 32.1821 464.839 32.1207 464.524 32.1207C464.203 32.1207 463.919 32.1821 463.674 32.3047C463.432 32.424 463.243 32.5947 463.107 32.8168C462.975 33.0355 462.91 33.2907 462.913 33.5824C462.91 33.8774 462.976 34.1375 463.112 34.3629C463.251 34.585 463.442 34.7607 463.684 34.8899C463.929 35.0159 464.209 35.0788 464.524 35.0788Z" fill="#1E1E1E"/>
<path d="M465.046 52.8182V63H463.202V54.6129H463.142L460.761 56.1342V54.4439L463.291 52.8182H465.046Z" fill="#1E1E1E"/>
</svg>
