<svg width="125" height="125" viewBox="0 0 125 125" fill="none" xmlns="http://www.w3.org/2000/svg">
<path d="M45.3714 53.0909V72H41.946V56.424H41.8352L37.4126 59.2493V56.1101L42.1122 53.0909H45.3714ZM57.0973 72.2585C56.1925 72.2524 55.3092 72.0954 54.4474 71.7876C53.5857 71.4737 52.8101 70.9659 52.1207 70.2642C51.4313 69.5563 50.8835 68.6177 50.4773 67.4482C50.071 66.2725 49.871 64.8168 49.8771 63.081C49.8771 61.4621 50.0495 60.0187 50.3942 58.7507C50.7389 57.4827 51.2344 56.4117 51.8807 55.5376C52.527 54.6574 53.3056 53.9865 54.2166 53.5249C55.1338 53.0632 56.1586 52.8324 57.2912 52.8324C58.4792 52.8324 59.5317 53.0663 60.4489 53.5341C61.3722 54.0019 62.117 54.642 62.6832 55.4545C63.2495 56.2609 63.6004 57.1719 63.7358 58.1875H60.3658C60.1934 57.4612 59.8395 56.8826 59.304 56.4517C58.7746 56.0147 58.1037 55.7962 57.2912 55.7962C55.9801 55.7962 54.9706 56.3655 54.2628 57.5043C53.5611 58.643 53.2071 60.2064 53.201 62.1946H53.3303C53.6319 61.6529 54.0227 61.1882 54.5028 60.8004C54.983 60.4126 55.5246 60.1141 56.1278 59.9048C56.7372 59.6894 57.3804 59.5817 58.0575 59.5817C59.1655 59.5817 60.1596 59.8464 61.0398 60.3757C61.9261 60.9051 62.6278 61.6345 63.1449 62.5639C63.6619 63.4872 63.9174 64.5459 63.9112 65.7401C63.9174 66.9834 63.6342 68.1006 63.0618 69.0916C62.4893 70.0765 61.6922 70.852 60.6705 71.4183C59.6487 71.9846 58.4576 72.2647 57.0973 72.2585ZM57.0788 69.4886C57.7498 69.4886 58.3499 69.3255 58.8793 68.9993C59.4086 68.6731 59.8272 68.233 60.1349 67.679C60.4427 67.125 60.5935 66.5033 60.5874 65.8139C60.5935 65.1368 60.4458 64.5244 60.1442 63.9766C59.8487 63.4287 59.4394 62.9948 58.9162 62.6747C58.393 62.3546 57.7959 62.1946 57.125 62.1946C56.6264 62.1946 56.1617 62.29 55.7308 62.4808C55.3 62.6716 54.9245 62.9363 54.6044 63.2749C54.2843 63.6072 54.032 63.995 53.8473 64.4382C53.6688 64.8752 53.5765 65.343 53.5703 65.8416C53.5765 66.5002 53.7304 67.1065 54.032 67.6605C54.3336 68.2145 54.7491 68.6577 55.2784 68.9901C55.8078 69.3224 56.4079 69.4886 57.0788 69.4886ZM77.142 68.4545V67.4574C77.142 66.7249 77.2959 66.0509 77.6037 65.4354C77.9176 64.8198 78.3731 64.3243 78.9702 63.9489C79.5672 63.5734 80.2905 63.3857 81.1399 63.3857C82.014 63.3857 82.7464 63.5734 83.3374 63.9489C83.9283 64.3182 84.3745 64.8106 84.6761 65.4261C84.9839 66.0417 85.1378 66.7187 85.1378 67.4574V68.4545C85.1378 69.187 84.9839 69.861 84.6761 70.4766C84.3684 71.0921 83.916 71.5876 83.3189 71.9631C82.728 72.3385 82.0017 72.5263 81.1399 72.5263C80.2782 72.5263 79.5488 72.3385 78.9517 71.9631C78.3546 71.5876 77.9022 71.0921 77.5945 70.4766C77.2929 69.861 77.142 69.187 77.142 68.4545ZM79.5518 67.4574V68.4545C79.5518 68.9408 79.6688 69.3871 79.9027 69.7933C80.1366 70.1996 80.549 70.4027 81.1399 70.4027C81.737 70.4027 82.1463 70.2027 82.3679 69.8026C82.5956 69.3963 82.7095 68.947 82.7095 68.4545V67.4574C82.7095 66.965 82.6018 66.5156 82.3864 66.1094C82.1709 65.697 81.7554 65.4908 81.1399 65.4908C80.5613 65.4908 80.152 65.697 79.9119 66.1094C79.6719 66.5156 79.5518 66.965 79.5518 67.4574ZM67.5305 57.6335V56.6364C67.5305 55.8977 67.6875 55.2206 68.0014 54.6051C68.3153 53.9896 68.7708 53.4972 69.3679 53.1278C69.965 52.7524 70.6882 52.5646 71.5376 52.5646C72.4055 52.5646 73.1349 52.7524 73.7259 53.1278C74.3229 53.4972 74.7723 53.9896 75.0739 54.6051C75.3755 55.2206 75.5263 55.8977 75.5263 56.6364V57.6335C75.5263 58.3722 75.3724 59.0492 75.0646 59.6648C74.763 60.2741 74.3137 60.7635 73.7166 61.1328C73.1196 61.5021 72.3932 61.6868 71.5376 61.6868C70.6697 61.6868 69.9373 61.5021 69.3402 61.1328C68.7493 60.7635 68.3 60.2711 67.9922 59.6555C67.6844 59.04 67.5305 58.366 67.5305 57.6335ZM69.9588 56.6364V57.6335C69.9588 58.1259 70.0727 58.5753 70.3004 58.9815C70.5343 59.3816 70.9467 59.5817 71.5376 59.5817C72.1286 59.5817 72.5348 59.3816 72.7564 58.9815C72.9841 58.5753 73.098 58.1259 73.098 57.6335V56.6364C73.098 56.1439 72.9903 55.6946 72.7749 55.2884C72.5594 54.8759 72.147 54.6697 71.5376 54.6697C70.9529 54.6697 70.5436 54.8759 70.3097 55.2884C70.0758 55.7008 69.9588 56.1501 69.9588 56.6364ZM68.5831 72L81.5831 53.0909H83.8913L70.8913 72H68.5831Z" fill="#2A2A2D" fill-opacity="0.96"/>
<circle cx="63.0071" cy="61.9774" r="55.1267" stroke="#E1D6D6" stroke-width="8"/>
<path d="M64.6127 7.5916C64.73 4.77059 67.1171 2.55627 69.9178 2.91403C78.1763 3.96897 86.1432 6.73984 93.2981 11.0697C100.453 15.3996 106.604 21.172 111.369 27.9987C112.985 30.3139 112.131 33.4558 109.686 34.8684C107.242 36.2809 104.135 35.4253 102.479 33.139C98.6024 27.79 93.6853 23.2552 88.0044 19.8173C82.3235 16.3795 76.0252 14.1272 69.4884 13.1747C66.6945 12.7676 64.4955 10.4126 64.6127 7.5916Z" fill="#B7C07B"/>
</svg>
