<svg width="125" height="125" viewBox="0 0 125 125" fill="none" xmlns="http://www.w3.org/2000/svg">
<path d="M37.032 72V69.5256L43.5966 63.0902C44.2244 62.4562 44.7476 61.893 45.1662 61.4006C45.5848 60.9081 45.8987 60.4311 46.108 59.9695C46.3172 59.5078 46.4219 59.0154 46.4219 58.4922C46.4219 57.8951 46.2865 57.3842 46.0156 56.9595C45.7448 56.5286 45.3724 56.1963 44.8984 55.9624C44.4245 55.7285 43.8859 55.6115 43.2827 55.6115C42.661 55.6115 42.1162 55.7408 41.6484 55.9993C41.1806 56.2517 40.8175 56.6117 40.5589 57.0795C40.3066 57.5473 40.1804 58.1044 40.1804 58.7507H36.9212C36.9212 57.5504 37.1951 56.5071 37.7429 55.6207C38.2907 54.7344 39.0447 54.0481 40.005 53.5618C40.9714 53.0755 42.0793 52.8324 43.3288 52.8324C44.5968 52.8324 45.7109 53.0694 46.6712 53.5433C47.6314 54.0173 48.3762 54.6667 48.9055 55.4915C49.4411 56.3163 49.7088 57.258 49.7088 58.3168C49.7088 59.0246 49.5734 59.7202 49.3026 60.4034C49.0317 61.0866 48.5547 61.8437 47.8714 62.6747C47.1944 63.5057 46.2434 64.5121 45.0185 65.6939L41.7592 69.0085V69.1378H49.995V72H37.032ZM53.1804 72V69.5256L59.745 63.0902C60.3729 62.4562 60.8961 61.893 61.3146 61.4006C61.7332 60.9081 62.0471 60.4311 62.2564 59.9695C62.4657 59.5078 62.5703 59.0154 62.5703 58.4922C62.5703 57.8951 62.4349 57.3842 62.1641 56.9595C61.8932 56.5286 61.5208 56.1963 61.0469 55.9624C60.5729 55.7285 60.0343 55.6115 59.4311 55.6115C58.8094 55.6115 58.2647 55.7408 57.7969 55.9993C57.3291 56.2517 56.9659 56.6117 56.7074 57.0795C56.455 57.5473 56.3288 58.1044 56.3288 58.7507H53.0696C53.0696 57.5504 53.3435 56.5071 53.8913 55.6207C54.4392 54.7344 55.1932 54.0481 56.1534 53.5618C57.1198 53.0755 58.2277 52.8324 59.4773 52.8324C60.7453 52.8324 61.8594 53.0694 62.8196 53.5433C63.7798 54.0173 64.5246 54.6667 65.054 55.4915C65.5895 56.3163 65.8572 57.258 65.8572 58.3168C65.8572 59.0246 65.7218 59.7202 65.451 60.4034C65.1802 61.0866 64.7031 61.8437 64.0199 62.6747C63.3428 63.5057 62.3918 64.5121 61.1669 65.6939L57.9077 69.0085V69.1378H66.1435V72H53.1804ZM79.4389 68.4545V67.4574C79.4389 66.7249 79.5928 66.0509 79.9006 65.4354C80.2145 64.8198 80.67 64.3243 81.267 63.9489C81.8641 63.5734 82.5874 63.3857 83.4368 63.3857C84.3108 63.3857 85.0433 63.5734 85.6342 63.9489C86.2251 64.3182 86.6714 64.8106 86.973 65.4261C87.2808 66.0417 87.4347 66.7187 87.4347 67.4574V68.4545C87.4347 69.187 87.2808 69.861 86.973 70.4766C86.6652 71.0921 86.2128 71.5876 85.6158 71.9631C85.0249 72.3385 84.2985 72.5263 83.4368 72.5263C82.575 72.5263 81.8456 72.3385 81.2486 71.9631C80.6515 71.5876 80.1991 71.0921 79.8913 70.4766C79.5897 69.861 79.4389 69.187 79.4389 68.4545ZM81.8487 67.4574V68.4545C81.8487 68.9408 81.9657 69.3871 82.1996 69.7933C82.4335 70.1996 82.8459 70.4027 83.4368 70.4027C84.0339 70.4027 84.4432 70.2027 84.6648 69.8026C84.8925 69.3963 85.0064 68.947 85.0064 68.4545V67.4574C85.0064 66.965 84.8987 66.5156 84.6832 66.1094C84.4678 65.697 84.0523 65.4908 83.4368 65.4908C82.8582 65.4908 82.4489 65.697 82.2088 66.1094C81.9688 66.5156 81.8487 66.965 81.8487 67.4574ZM69.8274 57.6335V56.6364C69.8274 55.8977 69.9844 55.2206 70.2983 54.6051C70.6122 53.9896 71.0677 53.4972 71.6648 53.1278C72.2618 52.7524 72.9851 52.5646 73.8345 52.5646C74.7024 52.5646 75.4318 52.7524 76.0227 53.1278C76.6198 53.4972 77.0691 53.9896 77.3707 54.6051C77.6723 55.2206 77.8232 55.8977 77.8232 56.6364V57.6335C77.8232 58.3722 77.6693 59.0492 77.3615 59.6648C77.0599 60.2741 76.6106 60.7635 76.0135 61.1328C75.4164 61.5021 74.6901 61.6868 73.8345 61.6868C72.9666 61.6868 72.2341 61.5021 71.6371 61.1328C71.0462 60.7635 70.5968 60.2711 70.2891 59.6555C69.9813 59.04 69.8274 58.366 69.8274 57.6335ZM72.2557 56.6364V57.6335C72.2557 58.1259 72.3696 58.5753 72.5973 58.9815C72.8312 59.3816 73.2436 59.5817 73.8345 59.5817C74.4254 59.5817 74.8317 59.3816 75.0533 58.9815C75.281 58.5753 75.3949 58.1259 75.3949 57.6335V56.6364C75.3949 56.1439 75.2872 55.6946 75.0717 55.2884C74.8563 54.8759 74.4439 54.6697 73.8345 54.6697C73.2498 54.6697 72.8404 54.8759 72.6065 55.2884C72.3726 55.7008 72.2557 56.1501 72.2557 56.6364ZM70.88 72L83.88 53.0909H86.1882L73.1882 72H70.88Z" fill="#2A2A2D" fill-opacity="0.96"/>
<circle cx="63.0382" cy="62.224" r="55.1267" stroke="#E1D6D6" stroke-width="8"/>
<path d="M64.7858 7.84426C64.9104 5.02355 67.3033 2.81542 70.1031 3.18041C82.1247 4.7476 93.431 9.9407 102.482 18.1271C111.532 26.3135 117.83 37.0435 120.592 48.8481C121.236 51.5973 119.278 54.1991 116.484 54.6052C113.69 55.0114 111.122 53.0655 110.43 50.3281C108.042 40.8773 102.908 32.2996 95.6229 25.71C88.3376 19.1204 79.2894 14.8704 69.6471 13.4399C66.8542 13.0256 64.6612 10.665 64.7858 7.84426Z" fill="#42C595"/>
</svg>
