<svg width="123" height="123" viewBox="0 0 123 123" fill="none" xmlns="http://www.w3.org/2000/svg">
<path d="M44.3714 51.0909V70H40.946V54.424H40.8352L36.4126 57.2493V54.1101L41.1122 51.0909H44.3714ZM55.7464 70.2585C54.5154 70.2585 53.4136 70.0277 52.4411 69.5661C51.4685 69.0982 50.696 68.4581 50.1236 67.6456C49.5573 66.8331 49.2557 65.9036 49.2188 64.8572H52.5426C52.6042 65.6328 52.9396 66.2668 53.549 66.7592C54.1584 67.2455 54.8909 67.4886 55.7464 67.4886C56.4174 67.4886 57.0144 67.3348 57.5376 67.027C58.0608 66.7192 58.4732 66.2914 58.7749 65.7436C59.0765 65.1958 59.2242 64.571 59.218 63.8693C59.2242 63.1553 59.0734 62.5213 58.7656 61.9673C58.4579 61.4134 58.0362 60.9794 57.5007 60.6655C56.9652 60.3454 56.3497 60.1854 55.6541 60.1854C55.0878 60.1792 54.5308 60.2839 53.983 60.4993C53.4351 60.7147 53.0012 60.9979 52.6811 61.3487L49.5881 60.8409L50.576 51.0909H61.5447V53.9531H53.4105L52.8658 58.9666H52.9766C53.3274 58.5542 53.8229 58.2126 54.4631 57.9418C55.1032 57.6648 55.8049 57.5263 56.5682 57.5263C57.7131 57.5263 58.7348 57.7971 59.6335 58.3388C60.5322 58.8743 61.2401 59.6129 61.7571 60.5547C62.2741 61.4964 62.5327 62.5736 62.5327 63.7862C62.5327 65.0357 62.2434 66.1499 61.6648 67.1286C61.0923 68.1011 60.2952 68.8674 59.2734 69.4276C58.2578 69.9815 57.0821 70.2585 55.7464 70.2585ZM75.7358 66.4545V65.4574C75.7358 64.7249 75.8897 64.0509 76.1974 63.4354C76.5114 62.8198 76.9669 62.3243 77.5639 61.9489C78.161 61.5734 78.8842 61.3857 79.7337 61.3857C80.6077 61.3857 81.3402 61.5734 81.9311 61.9489C82.522 62.3182 82.9683 62.8106 83.2699 63.4261C83.5777 64.0417 83.7315 64.7187 83.7315 65.4574V66.4545C83.7315 67.187 83.5777 67.861 83.2699 68.4766C82.9621 69.0921 82.5097 69.5876 81.9126 69.9631C81.3217 70.3385 80.5954 70.5263 79.7337 70.5263C78.8719 70.5263 78.1425 70.3385 77.5455 69.9631C76.9484 69.5876 76.496 69.0921 76.1882 68.4766C75.8866 67.861 75.7358 67.187 75.7358 66.4545ZM78.1456 65.4574V66.4545C78.1456 66.9408 78.2625 67.3871 78.4964 67.7933C78.7304 68.1996 79.1428 68.4027 79.7337 68.4027C80.3307 68.4027 80.7401 68.2027 80.9616 67.8026C81.1894 67.3963 81.3033 66.947 81.3033 66.4545V65.4574C81.3033 64.965 81.1956 64.5156 80.9801 64.1094C80.7647 63.697 80.3492 63.4908 79.7337 63.4908C79.1551 63.4908 78.7457 63.697 78.5057 64.1094C78.2656 64.5156 78.1456 64.965 78.1456 65.4574ZM66.1243 55.6335V54.6364C66.1243 53.8977 66.2813 53.2206 66.5952 52.6051C66.9091 51.9896 67.3646 51.4972 67.9616 51.1278C68.5587 50.7524 69.282 50.5646 70.1314 50.5646C70.9993 50.5646 71.7287 50.7524 72.3196 51.1278C72.9167 51.4972 73.366 51.9896 73.6676 52.6051C73.9692 53.2206 74.12 53.8977 74.12 54.6364V55.6335C74.12 56.3722 73.9661 57.0492 73.6584 57.6648C73.3568 58.2741 72.9074 58.7635 72.3104 59.1328C71.7133 59.5021 70.987 59.6868 70.1314 59.6868C69.2635 59.6868 68.531 59.5021 67.9339 59.1328C67.343 58.7635 66.8937 58.2711 66.5859 57.6555C66.2782 57.04 66.1243 56.366 66.1243 55.6335ZM68.5526 54.6364V55.6335C68.5526 56.1259 68.6664 56.5753 68.8942 56.9815C69.1281 57.3816 69.5405 57.5817 70.1314 57.5817C70.7223 57.5817 71.1286 57.3816 71.3501 56.9815C71.5779 56.5753 71.6918 56.1259 71.6918 55.6335V54.6364C71.6918 54.1439 71.584 53.6946 71.3686 53.2884C71.1532 52.8759 70.7408 52.6697 70.1314 52.6697C69.5466 52.6697 69.1373 52.8759 68.9034 53.2884C68.6695 53.7008 68.5526 54.1501 68.5526 54.6364ZM67.1768 70L80.1768 51.0909H82.4851L69.4851 70H67.1768Z" fill="#2A2A2D" fill-opacity="0.96"/>
<circle cx="62.0078" cy="61.1613" r="55.1267" stroke="#E1D6D6" stroke-width="8"/>
<path d="M60.3951 6.73654C60.3462 3.91351 62.5989 1.56258 65.4158 1.75493C73.0938 2.27923 80.6152 4.2822 87.5605 7.67079C94.5058 11.0594 100.714 15.7548 105.852 21.4837C107.737 23.5855 107.271 26.8079 105.016 28.5068V28.5068C102.761 30.2057 99.5735 29.7335 97.6514 27.6653C93.5094 23.2082 88.5717 19.5408 83.0771 16.86C77.5825 14.1793 71.653 12.5446 65.5908 12.0231C62.7777 11.7811 60.4441 9.55958 60.3951 6.73654V6.73654Z" fill="#50A2FF"/>
</svg>
