<svg width="182" height="183" viewBox="0 0 182 183" fill="none" xmlns="http://www.w3.org/2000/svg">
<path d="M56.7507 96.4119V92.8501L67.2429 76.2727H70.2131V81.3438H68.402L61.3388 92.5362V92.7294H75.9844V96.4119H56.7507ZM68.5469 101V95.3253L68.5952 93.7315V76.2727H72.821V101H68.5469ZM79.3952 96.4119V92.8501L89.8874 76.2727H92.8576V81.3438H91.0465L83.9833 92.5362V92.7294H98.6289V96.4119H79.3952ZM91.1914 101V95.3253L91.2397 93.7315V76.2727H95.4656V101H91.1914ZM115.707 96.3636V95.0597C115.707 94.1018 115.909 93.2204 116.311 92.4155C116.722 91.6106 117.317 90.9626 118.098 90.4716C118.879 89.9806 119.825 89.7351 120.935 89.7351C122.078 89.7351 123.036 89.9806 123.809 90.4716C124.582 90.9545 125.165 91.5985 125.56 92.4034C125.962 93.2083 126.163 94.0937 126.163 95.0597V96.3636C126.163 97.3215 125.962 98.2029 125.56 99.0078C125.157 99.8127 124.566 100.461 123.785 100.952C123.012 101.443 122.062 101.688 120.935 101.688C119.808 101.688 118.855 101.443 118.074 100.952C117.293 100.461 116.701 99.8127 116.299 99.0078C115.905 98.2029 115.707 97.3215 115.707 96.3636ZM118.859 95.0597V96.3636C118.859 96.9995 119.012 97.5831 119.317 98.1143C119.623 98.6456 120.163 98.9112 120.935 98.9112C121.716 98.9112 122.251 98.6496 122.541 98.1264C122.839 97.5952 122.988 97.0076 122.988 96.3636V95.0597C122.988 94.4157 122.847 93.8281 122.565 93.2969C122.284 92.7576 121.74 92.4879 120.935 92.4879C120.179 92.4879 119.643 92.7576 119.33 93.2969C119.016 93.8281 118.859 94.4157 118.859 95.0597ZM103.138 82.2131V80.9091C103.138 79.9432 103.344 79.0578 103.754 78.2528C104.165 77.4479 104.76 76.804 105.541 76.321C106.322 75.83 107.268 75.5845 108.379 75.5845C109.513 75.5845 110.467 75.83 111.24 76.321C112.021 76.804 112.608 77.4479 113.003 78.2528C113.397 79.0578 113.594 79.9432 113.594 80.9091V82.2131C113.594 83.179 113.393 84.0644 112.991 84.8693C112.596 85.6662 112.009 86.3061 111.228 86.7891C110.447 87.272 109.497 87.5135 108.379 87.5135C107.244 87.5135 106.286 87.272 105.505 86.7891C104.732 86.3061 104.145 85.6622 103.742 84.8572C103.34 84.0523 103.138 83.1709 103.138 82.2131ZM106.314 80.9091V82.2131C106.314 82.857 106.463 83.4446 106.761 83.9759C107.067 84.4991 107.606 84.7607 108.379 84.7607C109.151 84.7607 109.683 84.4991 109.972 83.9759C110.27 83.4446 110.419 82.857 110.419 82.2131V80.9091C110.419 80.2652 110.278 79.6776 109.996 79.1463C109.715 78.607 109.175 78.3374 108.379 78.3374C107.614 78.3374 107.079 78.607 106.773 79.1463C106.467 79.6856 106.314 80.2732 106.314 80.9091ZM104.515 101L121.515 76.2727H124.533L107.533 101H104.515Z" fill="#2A2A2D" fill-opacity="0.96"/>
<circle cx="91.9433" cy="91.5861" r="83.5605" stroke="#E1D6D6" stroke-width="8"/>
<path d="M93.1948 11.0074C93.3103 6.82777 96.7994 3.49966 100.954 3.9716C118.793 5.99802 135.661 13.4108 149.262 25.3109C164.77 38.8786 175.06 57.4297 178.361 77.7687C181.661 98.1076 177.765 118.961 167.344 136.736C158.203 152.327 144.544 164.693 128.262 172.256C124.47 174.018 120.107 171.964 118.676 168.035C117.245 164.106 119.292 159.796 123.052 157.968C136.035 151.657 146.924 141.627 154.281 129.078C162.921 114.342 166.151 97.0549 163.415 80.194C160.679 63.3331 152.148 47.9542 139.292 36.7067C128.344 27.1278 114.842 21.0561 100.53 19.174C96.3842 18.6288 93.0793 15.1871 93.1948 11.0074Z" fill="#182E67"/>
</svg>
