<svg width="122" height="122" viewBox="0 0 122 122" fill="none" xmlns="http://www.w3.org/2000/svg">
<path d="M43.723 51.0909V70H40.2976V54.424H40.1868L35.7642 57.2493V54.1101L40.4638 51.0909H43.723ZM55.2457 70.2585C53.8731 70.2585 52.6544 70.0277 51.5895 69.5661C50.5308 69.1044 49.6998 68.4735 49.0966 67.6733C48.4995 66.867 48.2041 65.9529 48.2102 64.9311C48.2041 64.1371 48.3764 63.4077 48.7273 62.7429C49.0781 62.0781 49.5521 61.5241 50.1491 61.081C50.7524 60.6316 51.4233 60.3454 52.1619 60.2223V60.093C51.1894 59.8776 50.4015 59.3821 49.7983 58.6065C49.2012 57.8248 48.9058 56.9231 48.9119 55.9013C48.9058 54.9287 49.1766 54.0608 49.7244 53.2976C50.2723 52.5343 51.0232 51.9342 51.9773 51.4972C52.9313 51.054 54.0208 50.8324 55.2457 50.8324C56.4583 50.8324 57.5386 51.054 58.4865 51.4972C59.4406 51.9342 60.1915 52.5343 60.7393 53.2976C61.2933 54.0608 61.5703 54.9287 61.5703 55.9013C61.5703 56.9231 61.2656 57.8248 60.6562 58.6065C60.053 59.3821 59.2744 59.8776 58.3203 60.093V60.2223C59.0589 60.3454 59.7237 60.6316 60.3146 61.081C60.9117 61.5241 61.3857 62.0781 61.7365 62.7429C62.0935 63.4077 62.272 64.1371 62.272 64.9311C62.272 65.9529 61.9704 66.867 61.3672 67.6733C60.764 68.4735 59.933 69.1044 58.8743 69.5661C57.8217 70.0277 56.6122 70.2585 55.2457 70.2585ZM55.2457 67.6179C55.9536 67.6179 56.5691 67.4979 57.0923 67.2578C57.6155 67.0116 58.0218 66.6669 58.3111 66.2237C58.6004 65.7805 58.7481 65.2696 58.7543 64.6911C58.7481 64.0878 58.5911 63.5554 58.2834 63.0938C57.9818 62.6259 57.5663 62.2597 57.0369 61.995C56.5137 61.7304 55.9167 61.598 55.2457 61.598C54.5687 61.598 53.9654 61.7304 53.4361 61.995C52.9067 62.2597 52.4882 62.6259 52.1804 63.0938C51.8788 63.5554 51.7311 64.0878 51.7372 64.6911C51.7311 65.2696 51.8726 65.7805 52.1619 66.2237C52.4512 66.6607 52.8575 67.0024 53.3807 67.2486C53.91 67.4948 54.5317 67.6179 55.2457 67.6179ZM55.2457 59.0036C55.8243 59.0036 56.3352 58.8866 56.7784 58.6527C57.2277 58.4188 57.5817 58.0926 57.8402 57.674C58.0987 57.2554 58.2311 56.7723 58.2372 56.2244C58.2311 55.6828 58.1018 55.2088 57.8494 54.8026C57.5971 54.3902 57.2462 54.0732 56.7969 53.8516C56.3475 53.6238 55.8305 53.5099 55.2457 53.5099C54.6487 53.5099 54.1224 53.6238 53.6669 53.8516C53.2176 54.0732 52.8667 54.3902 52.6143 54.8026C52.3681 55.2088 52.2481 55.6828 52.2543 56.2244C52.2481 56.7723 52.3712 57.2554 52.6236 57.674C52.8821 58.0864 53.236 58.4126 53.6854 58.6527C54.1409 58.8866 54.661 59.0036 55.2457 59.0036ZM75.4174 66.4545V65.4574C75.4174 64.7249 75.5713 64.0509 75.8791 63.4354C76.193 62.8198 76.6485 62.3243 77.2456 61.9489C77.8426 61.5734 78.5659 61.3857 79.4153 61.3857C80.2894 61.3857 81.0218 61.5734 81.6127 61.9489C82.2037 62.3182 82.6499 62.8106 82.9515 63.4261C83.2593 64.0417 83.4132 64.7187 83.4132 65.4574V66.4545C83.4132 67.187 83.2593 67.861 82.9515 68.4766C82.6438 69.0921 82.1913 69.5876 81.5943 69.9631C81.0034 70.3385 80.277 70.5263 79.4153 70.5263C78.5536 70.5263 77.8242 70.3385 77.2271 69.9631C76.63 69.5876 76.1776 69.0921 75.8699 68.4766C75.5682 67.861 75.4174 67.187 75.4174 66.4545ZM77.8272 65.4574V66.4545C77.8272 66.9408 77.9442 67.3871 78.1781 67.7933C78.412 68.1996 78.8244 68.4027 79.4153 68.4027C80.0124 68.4027 80.4217 68.2027 80.6433 67.8026C80.871 67.3963 80.9849 66.947 80.9849 66.4545V65.4574C80.9849 64.965 80.8772 64.5156 80.6618 64.1094C80.4463 63.697 80.0308 63.4908 79.4153 63.4908C78.8367 63.4908 78.4274 63.697 78.1873 64.1094C77.9473 64.5156 77.8272 64.965 77.8272 65.4574ZM65.8059 55.6335V54.6364C65.8059 53.8977 65.9629 53.2206 66.2768 52.6051C66.5907 51.9896 67.0462 51.4972 67.6433 51.1278C68.2404 50.7524 68.9636 50.5646 69.813 50.5646C70.6809 50.5646 71.4103 50.7524 72.0012 51.1278C72.5983 51.4972 73.0476 51.9896 73.3493 52.6051C73.6509 53.2206 73.8017 53.8977 73.8017 54.6364V55.6335C73.8017 56.3722 73.6478 57.0492 73.34 57.6648C73.0384 58.2741 72.5891 58.7635 71.992 59.1328C71.3949 59.5021 70.6686 59.6868 69.813 59.6868C68.9451 59.6868 68.2127 59.5021 67.6156 59.1328C67.0247 58.7635 66.5753 58.2711 66.2676 57.6555C65.9598 57.04 65.8059 56.366 65.8059 55.6335ZM68.2342 54.6364V55.6335C68.2342 56.1259 68.3481 56.5753 68.5758 56.9815C68.8097 57.3816 69.2221 57.5817 69.813 57.5817C70.4039 57.5817 70.8102 57.3816 71.0318 56.9815C71.2595 56.5753 71.3734 56.1259 71.3734 55.6335V54.6364C71.3734 54.1439 71.2657 53.6946 71.0502 53.2884C70.8348 52.8759 70.4224 52.6697 69.813 52.6697C69.2283 52.6697 68.819 52.8759 68.585 53.2884C68.3511 53.7008 68.2342 54.1501 68.2342 54.6364ZM66.8585 70L79.8585 51.0909H82.1667L69.1667 70H66.8585Z" fill="#2A2A2D" fill-opacity="0.96"/>
<circle cx="62.0383" cy="61.1616" r="55.1267" stroke="#E1D6D6" stroke-width="8"/>
<path d="M60.7598 6.732C60.7281 3.90872 62.9951 1.57159 65.8108 1.78115C75.3718 2.49273 84.6485 5.4958 92.843 10.5682C101.037 15.6406 107.862 22.6045 112.763 30.8448C114.206 33.2716 113.126 36.3429 110.584 37.5737C108.043 38.8044 105.008 37.7248 103.522 35.3239C99.496 28.8187 94.0055 23.3128 87.4615 19.262C80.9175 15.2113 73.5409 12.7524 65.9231 12.0502C63.1115 11.791 60.7914 9.55528 60.7598 6.732Z" fill="#855079"/>
</svg>
