<svg width="660" height="900" viewBox="0 0 660 900" fill="none" xmlns="http://www.w3.org/2000/svg">
<rect x="81" width="579" height="900" fill="#040980"/>
<g clip-path="url(#clip0_208_13)">
<path d="M629.629 378.74H521.281V452.588H629.629V378.74Z" fill="#9EC0FF"/>
<path d="M617.744 468.76L610.401 463.648L603.045 468.76V442.161H617.744V468.76Z" fill="#5181DB"/>
<path d="M610.401 451.75C616.341 451.75 621.156 446.935 621.156 440.994C621.156 435.054 616.341 430.238 610.401 430.238C604.462 430.238 599.646 435.054 599.646 440.994C599.646 446.935 604.462 451.75 610.401 451.75Z" fill="#5181DB"/>
<path d="M621.035 441.12C621.987 435.256 618.005 429.731 612.142 428.779C606.279 427.827 600.755 431.809 599.803 437.673C598.852 443.536 602.833 449.062 608.696 450.013C614.559 450.965 620.083 446.983 621.035 441.12Z" fill="white"/>
<path d="M617.998 439.383C617.998 440.889 617.552 442.36 616.716 443.612C615.88 444.863 614.691 445.839 613.301 446.415C611.91 446.991 610.38 447.141 608.904 446.848C607.428 446.554 606.072 445.829 605.008 444.765C603.944 443.7 603.219 442.344 602.926 440.868C602.632 439.392 602.783 437.862 603.359 436.471C603.934 435.08 604.91 433.892 606.161 433.055C607.413 432.219 608.884 431.773 610.389 431.773C612.407 431.773 614.343 432.575 615.77 434.002C617.197 435.429 617.998 437.365 617.998 439.383Z" stroke="#9EC0FF" stroke-width="0.76" stroke-miterlimit="10"/>
<path d="M529.994 404.197H617.999" stroke="#89A4D9" stroke-miterlimit="10"/>
<path d="M553.799 397.361H594.193" stroke="#89A4D9" stroke-miterlimit="10"/>
<path d="M529.994 411.034H617.999" stroke="#89A4D9" stroke-miterlimit="10"/>
<path d="M529.994 417.871H617.999" stroke="#89A4D9" stroke-miterlimit="10"/>
<path d="M529.994 424.708H617.999" stroke="#89A4D9" stroke-miterlimit="10"/>
<path d="M555.105 431.545H592.887" stroke="#89A4D9" stroke-miterlimit="10"/>
<path d="M582.475 497.071H564.973V581.535H582.475V497.071Z" fill="#2E6ADB"/>
<path d="M561.154 512.66H543.652V581.535H561.154V512.66Z" fill="#9EC0FF"/>
<path d="M539.822 503.388H522.32V581.535H539.822V503.388Z" fill="#89A4D9"/>
<path d="M518.502 538.447H501V581.535H518.502V538.447Z" fill="#5181DB"/>
<path d="M497.17 558.602H479.668V581.535H497.17V558.602Z" fill="white"/>
<path d="M592.036 586.012H475.787V494.268" stroke="white" stroke-width="1.15" stroke-miterlimit="10"/>
<path d="M573.025 246.901C561.361 246.901 549.959 250.36 540.261 256.841C530.562 263.322 523.004 272.534 518.54 283.311C514.076 294.089 512.908 305.948 515.184 317.389C517.46 328.83 523.076 339.34 531.324 347.589C539.572 355.837 550.08 361.455 561.52 363.731C572.96 366.006 584.817 364.838 595.593 360.374C606.37 355.91 615.58 348.35 622.06 338.651C628.54 328.951 631.999 317.548 631.999 305.883C631.999 290.24 625.786 275.238 614.726 264.176C603.666 253.115 588.666 246.901 573.025 246.901ZM573.025 355.059C563.3 355.059 553.793 352.175 545.707 346.771C537.621 341.368 531.319 333.687 527.597 324.702C523.876 315.716 522.902 305.828 524.799 296.289C526.697 286.749 531.38 277.987 538.256 271.109C545.133 264.232 553.894 259.548 563.432 257.651C572.97 255.753 582.857 256.727 591.842 260.449C600.826 264.171 608.506 270.474 613.909 278.562C619.312 286.649 622.195 296.156 622.195 305.883C622.197 312.341 620.926 318.736 618.456 324.704C615.986 330.671 612.364 336.092 607.797 340.659C603.231 345.226 597.81 348.848 591.844 351.319C585.877 353.79 579.483 355.061 573.025 355.059Z" fill="#9EC0FF"/>
<path d="M575.067 262.858C575.07 263.336 574.93 263.803 574.667 264.202C574.403 264.6 574.027 264.911 573.586 265.095C573.145 265.279 572.659 265.327 572.191 265.235C571.722 265.142 571.292 264.912 570.954 264.575C570.616 264.237 570.386 263.806 570.294 263.338C570.201 262.869 570.25 262.383 570.434 261.942C570.618 261.501 570.929 261.125 571.327 260.861C571.725 260.598 572.193 260.458 572.67 260.461C573.305 260.464 573.913 260.718 574.362 261.166C574.81 261.615 575.064 262.223 575.067 262.858Z" fill="#9EC0FF"/>
<path d="M575.067 348.907C575.067 349.384 574.926 349.851 574.66 350.247C574.395 350.644 574.018 350.953 573.577 351.135C573.136 351.317 572.651 351.364 572.183 351.27C571.715 351.176 571.286 350.945 570.949 350.607C570.613 350.268 570.384 349.838 570.293 349.37C570.201 348.901 570.251 348.416 570.435 347.976C570.619 347.536 570.93 347.16 571.328 346.897C571.726 346.634 572.193 346.495 572.67 346.497C572.986 346.497 573.299 346.56 573.591 346.681C573.882 346.802 574.147 346.98 574.37 347.204C574.593 347.428 574.769 347.694 574.889 347.986C575.008 348.278 575.069 348.591 575.067 348.907Z" fill="#9EC0FF"/>
<path d="M553.317 267.551C553.552 267.962 553.661 268.434 553.628 268.907C553.596 269.38 553.424 269.833 553.134 270.208C552.844 270.584 552.45 270.864 552 271.015C551.551 271.166 551.067 271.181 550.609 271.056C550.152 270.932 549.741 270.675 549.43 270.318C549.118 269.96 548.92 269.519 548.859 269.048C548.799 268.578 548.879 268.101 549.09 267.676C549.301 267.251 549.633 266.899 550.045 266.663C550.318 266.506 550.619 266.405 550.931 266.365C551.244 266.325 551.561 266.347 551.865 266.429C552.168 266.512 552.453 266.653 552.702 266.846C552.951 267.038 553.16 267.278 553.317 267.551Z" fill="#9EC0FF"/>
<path d="M596.336 342.058C596.576 342.47 596.688 342.944 596.658 343.421C596.629 343.897 596.459 344.354 596.169 344.733C595.88 345.112 595.484 345.397 595.033 345.551C594.581 345.706 594.094 345.723 593.633 345.6C593.172 345.477 592.758 345.22 592.443 344.861C592.128 344.503 591.927 344.059 591.864 343.586C591.802 343.113 591.882 342.632 592.093 342.204C592.304 341.776 592.637 341.421 593.051 341.183C593.603 340.865 594.258 340.778 594.874 340.942C595.489 341.106 596.015 341.507 596.336 342.058Z" fill="#9EC0FF"/>
<path d="M536.829 282.48C537.238 282.719 537.567 283.073 537.775 283.499C537.983 283.924 538.06 284.402 537.997 284.871C537.934 285.34 537.733 285.78 537.42 286.136C537.107 286.491 536.696 286.746 536.239 286.868C535.781 286.99 535.298 286.973 534.849 286.821C534.401 286.668 534.008 286.386 533.72 286.011C533.432 285.635 533.261 285.182 533.23 284.71C533.199 284.237 533.308 283.766 533.544 283.355C533.865 282.805 534.39 282.404 535.006 282.24C535.621 282.076 536.277 282.162 536.829 282.48Z" fill="#9EC0FF"/>
<path d="M611.302 325.505C611.715 325.743 612.049 326.099 612.26 326.526C612.471 326.954 612.551 327.435 612.488 327.908C612.426 328.381 612.224 328.825 611.91 329.184C611.595 329.542 611.18 329.799 610.719 329.922C610.258 330.045 609.771 330.028 609.32 329.874C608.868 329.719 608.473 329.435 608.183 329.055C607.894 328.676 607.724 328.219 607.694 327.743C607.664 327.267 607.777 326.792 608.017 326.38C608.338 325.83 608.863 325.429 609.479 325.265C610.094 325.101 610.75 325.187 611.302 325.505Z" fill="#9EC0FF"/>
<path d="M530.018 303.663C530.495 303.665 530.96 303.809 531.355 304.076C531.75 304.343 532.056 304.721 532.236 305.162C532.417 305.604 532.462 306.088 532.366 306.555C532.271 307.022 532.039 307.451 531.7 307.786C531.362 308.121 530.931 308.348 530.463 308.439C529.995 308.529 529.511 308.479 529.072 308.294C528.632 308.11 528.258 307.799 527.995 307.401C527.732 307.003 527.593 306.537 527.596 306.06C527.596 305.743 527.659 305.429 527.781 305.137C527.903 304.844 528.081 304.579 528.307 304.356C528.532 304.133 528.799 303.957 529.093 303.838C529.387 303.719 529.701 303.659 530.018 303.663Z" fill="#9EC0FF"/>
<path d="M616.045 303.663C616.523 303.66 616.991 303.8 617.389 304.064C617.787 304.328 618.098 304.704 618.282 305.145C618.466 305.586 618.515 306.071 618.422 306.54C618.33 307.008 618.1 307.439 617.762 307.777C617.424 308.115 616.994 308.344 616.525 308.437C616.057 308.53 615.571 308.481 615.13 308.297C614.689 308.113 614.313 307.802 614.049 307.404C613.785 307.006 613.646 306.538 613.648 306.06C613.652 305.425 613.905 304.817 614.354 304.369C614.803 303.92 615.411 303.666 616.045 303.663Z" fill="#9EC0FF"/>
<path d="M534.699 325.416C534.971 325.255 535.273 325.15 535.586 325.107C535.9 325.064 536.219 325.084 536.524 325.166C536.83 325.247 537.116 325.388 537.367 325.582C537.617 325.775 537.827 326.016 537.983 326.291C538.141 326.565 538.243 326.866 538.284 327.179C538.325 327.491 538.303 327.809 538.222 328.113C538.14 328.418 537.999 328.703 537.807 328.953C537.614 329.203 537.375 329.413 537.102 329.57C536.829 329.728 536.527 329.83 536.215 329.871C535.902 329.911 535.585 329.89 535.28 329.809C534.976 329.727 534.69 329.586 534.44 329.393C534.19 329.201 533.981 328.962 533.823 328.689C533.665 328.417 533.561 328.116 533.519 327.804C533.477 327.492 533.498 327.174 533.579 326.87C533.66 326.566 533.801 326.281 533.993 326.031C534.186 325.782 534.425 325.573 534.699 325.416Z" fill="#9EC0FF"/>
<path d="M609.209 282.391C609.621 282.157 610.092 282.05 610.564 282.083C611.036 282.117 611.488 282.289 611.863 282.579C612.237 282.868 612.517 283.262 612.668 283.711C612.819 284.16 612.833 284.643 612.71 285.1C612.586 285.557 612.33 285.967 611.974 286.279C611.618 286.591 611.177 286.79 610.708 286.852C610.239 286.913 609.762 286.835 609.337 286.625C608.912 286.416 608.559 286.086 608.322 285.677C608.008 285.122 607.926 284.467 608.092 283.852C608.258 283.237 608.659 282.712 609.209 282.391Z" fill="#9EC0FF"/>
<path d="M549.626 341.906C549.863 341.492 550.217 341.157 550.644 340.945C551.071 340.733 551.552 340.652 552.025 340.713C552.498 340.773 552.942 340.973 553.301 341.287C553.661 341.6 553.919 342.014 554.043 342.474C554.168 342.934 554.153 343.422 554 343.873C553.848 344.325 553.565 344.722 553.187 345.013C552.809 345.304 552.353 345.476 551.877 345.508C551.401 345.539 550.927 345.429 550.514 345.191C550.239 345.034 549.998 344.825 549.804 344.575C549.61 344.324 549.468 344.038 549.386 343.733C549.303 343.428 549.282 343.109 549.323 342.795C549.364 342.482 549.467 342.179 549.626 341.906Z" fill="#9EC0FF"/>
<path d="M592.645 267.373C592.882 266.959 593.236 266.625 593.663 266.413C594.09 266.2 594.57 266.12 595.043 266.18C595.516 266.241 595.961 266.441 596.32 266.755C596.679 267.068 596.938 267.481 597.062 267.942C597.187 268.402 597.172 268.889 597.019 269.341C596.867 269.793 596.583 270.19 596.205 270.481C595.828 270.771 595.372 270.944 594.896 270.975C594.42 271.007 593.946 270.897 593.532 270.659C592.98 270.34 592.576 269.815 592.41 269.199C592.243 268.584 592.328 267.927 592.645 267.373Z" fill="#9EC0FF"/>
<path d="M573.025 268.591V305.883L551.236 319.886" stroke="white" stroke-miterlimit="10"/>
<path d="M573.026 309.929C575.261 309.929 577.072 308.117 577.072 305.883C577.072 303.648 575.261 301.836 573.026 301.836C570.792 301.836 568.98 303.648 568.98 305.883C568.98 308.117 570.792 309.929 573.026 309.929Z" fill="#9EC0FF"/>
<path d="M536.664 299.376H438.602V418.011H536.664V299.376Z" fill="white"/>
<path d="M452.324 314.622H481.925" stroke="#B8D0FF" stroke-miterlimit="10"/>
<path d="M452.324 323.07H522.941" stroke="#B8D0FF" stroke-miterlimit="10"/>
<path d="M452.324 331.505H522.941" stroke="#B8D0FF" stroke-miterlimit="10"/>
<path d="M452.324 339.952H522.941" stroke="#B8D0FF" stroke-miterlimit="10"/>
<path d="M452.324 348.4H522.941" stroke="#B8D0FF" stroke-miterlimit="10"/>
<path d="M452.324 356.835H522.941" stroke="#B8D0FF" stroke-miterlimit="10"/>
<path d="M452.324 365.282H522.941" stroke="#B8D0FF" stroke-miterlimit="10"/>
<path d="M452.324 373.717H522.941" stroke="#B8D0FF" stroke-miterlimit="10"/>
<path d="M452.324 382.165H522.941" stroke="#B8D0FF" stroke-miterlimit="10"/>
<path d="M452.324 390.613H522.941" stroke="#B8D0FF" stroke-miterlimit="10"/>
<path d="M452.324 399.048H481.925" stroke="#B8D0FF" stroke-miterlimit="10"/>
<path d="M514.317 293.668V322.841C514.317 324.591 513.622 326.268 512.385 327.505C511.148 328.742 509.471 329.437 507.722 329.437C505.973 329.437 504.295 328.742 503.059 327.505C501.822 326.268 501.127 324.591 501.127 322.841V292.399C501.147 289.734 502.214 287.184 504.098 285.3C505.983 283.415 508.532 282.348 511.197 282.328C513.862 282.351 516.41 283.422 518.292 285.309C520.174 287.196 521.238 289.747 521.254 292.412V299.376" stroke="#2E6ADB" stroke-width="2" stroke-miterlimit="10"/>
<path d="M184.874 265.116L213.359 267.957C214.292 258.569 212.59 249.106 208.443 240.632C204.296 232.158 197.869 225.008 189.883 219.985L174.664 244.212C178.142 246.401 180.941 249.517 182.744 253.21C184.548 256.903 185.285 261.026 184.874 265.116Z" fill="#9EC0FF"/>
<path d="M181.615 274.692C178.495 279.645 173.539 283.158 167.833 284.461C162.127 285.764 156.137 284.751 151.177 281.643C148.797 280.153 146.729 278.214 145.089 275.935L121.893 292.742C127.946 301.043 136.376 307.311 146.069 310.717C155.761 314.122 166.259 314.504 176.174 311.812C186.088 309.12 194.952 303.481 201.592 295.641C208.232 287.801 212.335 278.129 213.36 267.906L184.874 265.065C184.552 268.484 183.436 271.781 181.615 274.692Z" fill="#2E6ADB"/>
<path d="M121.893 292.742L145.038 275.884C143.111 273.201 141.81 270.119 141.234 266.866L113.078 272.054C114.432 279.522 117.444 286.592 121.893 292.742Z" fill="#5181DB"/>
<path d="M144.176 251.163C146.478 247.505 149.8 244.6 153.733 242.808C157.666 241.016 162.037 240.415 166.308 241.079L170.708 212.831C162.708 211.588 154.526 212.277 146.847 214.842C139.167 217.407 132.213 221.773 126.565 227.575C120.917 233.378 116.741 240.448 114.383 248.194C112.026 255.941 111.557 264.14 113.015 272.105L141.171 266.917C140.157 261.474 141.23 255.85 144.176 251.163Z" fill="#89A4D9"/>
<path d="M166.307 241.079C169.272 241.548 172.111 242.614 174.652 244.212L189.871 219.985C184.039 216.317 177.517 213.882 170.708 212.831L166.307 241.079Z" fill="white"/>
<path d="M149.743 454.16H40.3047V598.811H149.743V454.16Z" fill="white"/>
<path d="M58.4281 583.361C53.7405 572.929 47.6424 563.189 40.3047 554.416V598.811H134.346C115.411 583.209 88.7776 575.522 58.4281 583.361Z" fill="#B8D0FF"/>
<path d="M49.5371 536.252H140.497" stroke="#B8D0FF" stroke-miterlimit="10"/>
<path d="M49.5371 544.091H140.497" stroke="#B8D0FF" stroke-miterlimit="10"/>
<path d="M49.5371 551.943H140.497" stroke="#B8D0FF" stroke-miterlimit="10"/>
<path d="M49.5371 559.794H140.497" stroke="#B8D0FF" stroke-miterlimit="10"/>
<path d="M49.5371 567.646H140.497" stroke="#B8D0FF" stroke-miterlimit="10"/>
<path d="M49.5371 575.484H140.497" stroke="#B8D0FF" stroke-miterlimit="10"/>
<path d="M68.802 470.586H49.5371V481.495H68.802V470.586Z" fill="#B8D0FF"/>
<path d="M92.7102 470.586H73.4453V481.495H92.7102V470.586Z" fill="#B8D0FF"/>
<path d="M116.603 470.586H97.3379V481.495H116.603V470.586Z" fill="#B8D0FF"/>
<path d="M140.511 470.586H121.246V481.495H140.511V470.586Z" fill="#B8D0FF"/>
<path d="M68.802 485.706H49.5371V496.614H68.802V485.706Z" fill="#B8D0FF"/>
<path d="M92.7102 485.706H73.4453V496.614H92.7102V485.706Z" fill="#B8D0FF"/>
<path d="M116.603 485.706H97.3379V496.614H116.603V485.706Z" fill="#B8D0FF"/>
<path d="M140.511 485.706H121.246V496.614H140.511V485.706Z" fill="#B8D0FF"/>
<path d="M68.802 500.825H49.5371V511.734H68.802V500.825Z" fill="#B8D0FF"/>
<path d="M92.7102 500.825H73.4453V511.734H92.7102V500.825Z" fill="#B8D0FF"/>
<path d="M116.603 500.825H97.3379V511.734H116.603V500.825Z" fill="#B8D0FF"/>
<path d="M140.511 500.825H121.246V511.734H140.511V500.825Z" fill="#B8D0FF"/>
<path d="M68.802 515.945H49.5371V526.853H68.802V515.945Z" fill="#B8D0FF"/>
<path d="M92.7102 515.945H73.4453V526.853H92.7102V515.945Z" fill="#B8D0FF"/>
<path d="M116.603 515.945H97.3379V526.853H116.603V515.945Z" fill="#B8D0FF"/>
<path d="M140.511 515.945H121.246V526.853H140.511V515.945Z" fill="#B8D0FF"/>
<path d="M224.444 398.68H67.9277V404.616H224.444V398.68Z" fill="#89A4D9"/>
<path d="M166.294 404.603H53.3043L37.2988 329.374H150.288L166.294 404.603Z" fill="white"/>
<path d="M146.586 331.086L162.224 404.603" stroke="#89A4D9" stroke-width="0.88" stroke-miterlimit="10"/>
<path d="M111.695 366.12C112.964 372.043 108.499 376.85 101.739 376.85C94.9796 376.85 88.4734 372.043 87.2178 366.12C85.9622 360.196 90.4138 355.376 97.1737 355.376C103.933 355.376 110.427 360.183 111.695 366.12Z" stroke="#89A4D9" stroke-width="0.76" stroke-miterlimit="10"/>
<path d="M82.8041 270.202H16.2838C12.8248 270.205 9.50867 271.582 7.06399 274.029C4.6193 276.477 3.24609 279.795 3.24609 283.254V312.935C3.24609 316.393 4.61971 319.71 7.06476 322.155C9.5098 324.6 12.826 325.974 16.2838 325.974H34.1536C35.9307 325.973 37.6581 326.561 39.065 327.647C40.4719 328.732 41.4789 330.254 41.9281 331.974L49.5376 360.665L57.1472 331.974C57.6008 330.254 58.6107 328.733 60.0194 327.648C61.428 326.563 63.1562 325.974 64.9343 325.974H82.8041C86.2619 325.974 89.5781 324.6 92.0232 322.155C94.4682 319.71 95.8419 316.393 95.8419 312.935V283.254C95.8419 279.795 94.4686 276.477 92.024 274.029C89.5793 271.582 86.2631 270.205 82.8041 270.202Z" fill="#9EC0FF"/>
<path d="M74.8141 284.129H27.6094V315.434H74.8141V284.129Z" stroke="white" stroke-width="0.88" stroke-miterlimit="10"/>
<path d="M30.9707 287.427L51.2122 302.711L71.4536 287.427" stroke="white" stroke-width="0.88" stroke-miterlimit="10"/>
<path d="M55.207 299.693L71.4535 312.136" stroke="white" stroke-width="0.88" stroke-miterlimit="10"/>
<path d="M30.9707 312.136L47.3313 299.781" stroke="white" stroke-width="0.88" stroke-miterlimit="10"/>
<path d="M37.8706 284.129C37.8706 285.918 37.3402 287.666 36.3466 289.154C35.353 290.641 33.9407 291.8 32.2884 292.485C30.636 293.169 28.8178 293.348 27.0637 292.999C25.3096 292.65 23.6984 291.789 22.4337 290.524C21.1691 289.259 20.3078 287.648 19.9589 285.894C19.61 284.139 19.7891 282.321 20.4735 280.668C21.1579 279.016 22.3169 277.603 23.804 276.61C25.2911 275.616 27.0394 275.085 28.8279 275.085C31.2261 275.085 33.5262 276.038 35.222 277.734C36.9179 279.43 37.8706 281.731 37.8706 284.129Z" fill="#2E6ADB"/>
<path d="M23.373 283.241L27.6978 286.932L34.2801 281.326" stroke="white" stroke-width="0.75" stroke-linecap="round" stroke-linejoin="round"/>
<path d="M422.521 236.627L429.37 274.451H492.086L485.25 236.627H422.521Z" fill="#5181DB"/>
<path d="M491.349 224.628H429.572V274.451H491.349V224.628Z" fill="white"/>
<path d="M468.28 231.224L461.532 239.697H435.482L429.572 274.451H492.301L499.644 231.224H468.28Z" fill="#9EC0FF"/>
<path d="M24.2456 428.029C29.7928 422.481 29.7928 413.486 24.2456 407.938C18.6984 402.39 9.70461 402.39 4.1574 407.938C-1.38981 413.486 -1.38982 422.481 4.1574 428.029C9.70461 433.577 18.6984 433.577 24.2456 428.029Z" fill="#2E6ADB"/>
<path d="M537.711 229.174C539.505 221.536 534.769 213.89 527.132 212.096C519.495 210.301 511.849 215.039 510.055 222.676C508.261 230.314 512.998 237.961 520.635 239.755C528.272 241.549 535.917 236.812 537.711 229.174Z" fill="#2E6ADB"/>
<path d="M629.89 509.586C631.701 501.952 626.982 494.295 619.349 492.483C611.716 490.672 604.06 495.391 602.249 503.025C600.437 510.659 605.156 518.316 612.789 520.128C620.422 521.94 628.079 517.22 629.89 509.586Z" fill="#2E6ADB"/>
<path d="M200.88 351.816C206.428 346.269 206.428 337.274 200.88 331.726C195.333 326.178 186.339 326.178 180.792 331.726C175.245 337.274 175.245 346.269 180.792 351.816C186.339 357.364 195.333 357.364 200.88 351.816Z" fill="#2E6ADB"/>
<path d="M327.354 706.853C333.49 701.965 334.502 693.027 329.614 686.89C324.726 680.753 315.789 679.741 309.653 684.629C303.517 689.518 302.505 698.456 307.393 704.593C312.281 710.729 321.218 711.741 327.354 706.853Z" fill="#2E6ADB"/>
<path d="M318.941 364.077C366.831 364.077 405.653 325.251 405.653 277.356C405.653 229.461 366.831 190.634 318.941 190.634C271.052 190.634 232.23 229.461 232.23 277.356C232.23 325.251 271.052 364.077 318.941 364.077Z" stroke="white" stroke-miterlimit="10"/>
<path d="M372.643 331.057C402.301 301.395 402.301 253.304 372.643 223.643C342.986 193.982 294.901 193.982 265.243 223.643C235.585 253.304 235.585 301.395 265.243 331.057C294.901 360.718 342.986 360.718 372.643 331.057Z" stroke="white" stroke-miterlimit="10"/>
<path d="M318.905 470.561L173.131 499.849L318.905 591.517L464.679 499.849L318.905 470.561Z" fill="#141D30"/>
<path d="M390.624 473.643L385.399 462.913L413.453 338.608L340.667 316.677H297.141L224.38 338.557L252.434 462.862L247.209 473.593L218.141 489.549L285.688 537.749C288.026 539.149 290.656 539.988 293.373 540.2C296.089 540.412 298.818 539.992 301.344 538.972C303.871 537.952 306.127 536.36 307.934 534.321C309.742 532.282 311.053 529.852 311.764 527.221L318.853 501.117L325.943 527.285C326.653 529.915 327.964 532.346 329.772 534.384C331.58 536.423 333.836 538.015 336.362 539.035C338.889 540.055 341.617 540.476 344.334 540.264C347.05 540.051 349.681 539.212 352.018 537.812L419.566 489.613L390.624 473.643Z" fill="#A8BCE1"/>
<path d="M297.191 319.569H340.617L318.904 424.657L297.191 319.569Z" fill="#DEDEDE"/>
<path d="M297.686 322.004L326.615 422.513L313.539 431.342L297.686 322.004Z" fill="#ABABAB"/>
<path d="M373.998 354.729C373.998 354.729 360.39 330.426 340.617 319.569L318.905 424.657L297.192 319.569C277.42 330.426 263.799 354.729 263.799 354.729L283.419 366.145L263.799 365.79C263.799 365.79 281.288 405.364 323.547 442.719C334.263 430.581 360.795 398.642 373.985 365.79L354.365 366.145L373.998 354.729Z" fill="#141D30"/>
<path d="M298.865 311.4H338.854L318.866 330.414L298.865 311.4Z" fill="white"/>
<path d="M340.617 276.848C340.617 276.848 343.153 267.576 344.903 259.484C346.654 251.391 342.76 247.599 339.665 246.165C336.989 231.718 327.097 225.706 317.344 225.693C317.154 225.692 316.969 225.751 316.817 225.864C316.664 225.977 316.552 226.136 316.498 226.318C316.443 226.499 316.449 226.694 316.515 226.872C316.581 227.05 316.703 227.201 316.862 227.304C319.11 228.771 320.93 230.805 322.138 233.202C313.569 231.642 304.724 233.16 297.166 237.49C284.8 244.745 287.02 250.085 292.879 253.421C293.329 261.216 294.565 268.947 296.57 276.493L340.617 276.848Z" fill="#142F61"/>
<path d="M318.904 424.657C321.559 436.803 325.142 448.727 329.621 460.325L319.817 498.022" stroke="#141D30" stroke-width="0.76" stroke-miterlimit="10"/>
<path d="M319.043 464.016C321.242 464.016 323.025 462.233 323.025 460.033C323.025 457.834 321.242 456.05 319.043 456.05C316.844 456.05 315.061 457.834 315.061 460.033C315.061 462.233 316.844 464.016 319.043 464.016Z" fill="#DEDEDE"/>
<path d="M314.871 495.866C314.871 496.654 314.637 497.424 314.2 498.079C313.762 498.734 313.14 499.244 312.413 499.546C311.685 499.847 310.884 499.926 310.112 499.772C309.339 499.619 308.63 499.239 308.073 498.682C307.516 498.125 307.136 497.416 306.983 496.643C306.829 495.87 306.908 495.07 307.209 494.342C307.511 493.614 308.021 492.992 308.676 492.554C309.331 492.117 310.101 491.883 310.889 491.883C311.945 491.883 312.958 492.303 313.705 493.05C314.451 493.797 314.871 494.81 314.871 495.866Z" fill="#DEDEDE"/>
<path d="M301.973 437.265L321.123 454.148" stroke="#141D30" stroke-width="0.76" stroke-miterlimit="10"/>
<path d="M316.964 466.16L303.406 474.962" stroke="#141D30" stroke-width="0.76" stroke-miterlimit="10"/>
<path d="M294.786 484.798L258.006 475.059L256.668 480.11L293.449 489.85L294.786 484.798Z" fill="#496EB5"/>
<path d="M341.916 490.443L378.822 480.55L377.464 475.481L340.557 485.374L341.916 490.443Z" fill="#496EB5"/>
<path d="M373.426 603.06L400.96 618.75L395.722 651.843L360.857 631.105L373.426 603.06Z" fill="white"/>
<path d="M392.463 612.281L394.264 638.423L387.923 633.451L375.24 644.423L388.798 653.378L399.35 681.194L403.992 698.419C404.136 698.938 404.412 699.411 404.795 699.79C405.177 700.169 405.651 700.442 406.171 700.582C406.691 700.721 407.239 700.723 407.76 700.586C408.28 700.449 408.757 700.179 409.141 699.802C415.232 693.749 418.722 685.557 418.868 676.97C419.265 665.43 418.183 653.887 415.647 642.622L420.606 643.446L422.445 621.097L417.169 620.742C413.908 617.628 410.01 615.259 405.745 613.798C401.48 612.338 396.948 611.82 392.463 612.281Z" fill="#141D30"/>
<path d="M141.131 527.17C146.356 500.115 183.453 489.118 218.647 507.954C253.842 526.79 381.771 598.012 381.771 598.012L360.185 654.596C346.234 649.902 344.789 643.472 333.615 639.375C324.395 635.988 321.668 640.262 307.045 635.278C292.422 630.293 287.641 624.813 279.22 621.896C265.839 617.253 253.398 618.585 241.007 614.374C220.119 607.296 202.147 601.183 193.016 597.999C155.894 585.074 135.893 554.238 141.131 527.17Z" fill="#8CA1C9"/>
<path d="M349.672 642.114L362.545 587.306L373.223 593.242L349.672 642.114Z" fill="#141D30"/>
<path d="M373.224 604.658L239.461 519.281" stroke="#141D30" stroke-width="0.76" stroke-miterlimit="10"/>
<path d="M416.383 623.063L414.836 639.616" stroke="#496EB5" stroke-width="0.69" stroke-miterlimit="10"/>
<path d="M360.186 654.596C355.571 653.104 351.24 650.844 347.377 647.911L370.206 591.517L381.848 597.999L360.186 654.596Z" fill="#496EB5"/>
<path d="M420.847 640.288L422.432 621.059L417.156 620.703C413.894 617.596 409.998 615.233 405.735 613.777C401.472 612.32 396.944 611.806 392.463 612.269L392.577 613.955L378.626 606.053L381.708 597.986C381.708 597.986 340.921 575.294 299.055 552.133L215.008 605.571L240.969 614.374C253.36 618.585 265.802 617.253 279.182 621.896C287.603 624.813 292.372 630.28 307.007 635.278C321.643 640.275 324.357 635.988 333.578 639.375C344.751 643.472 346.197 649.902 360.148 654.596L367.605 635.113L378.512 641.594L375.24 644.423L388.798 653.378L389.165 654.342L415.647 642.609L420.847 640.288Z" fill="#141D30"/>
<path d="M496.69 527.17C491.452 500.115 454.355 489.118 419.161 507.954C383.967 526.79 256.037 598.012 256.037 598.012L277.674 654.608C291.625 649.915 293.07 643.484 304.244 639.387C313.464 636.001 316.191 640.275 330.877 635.29C345.564 630.305 350.269 624.826 358.69 621.908C372.07 617.266 384.525 618.598 396.903 614.387C417.791 607.309 435.762 601.195 444.894 598.012C481.94 585.074 501.915 554.238 496.69 527.17Z" fill="#8CA1C9"/>
<path d="M288.136 642.114L275.212 587.306L264.533 593.242L288.136 642.114Z" fill="#141D30"/>
<path d="M264.584 604.658L398.348 519.281" stroke="#141D30" stroke-width="0.76" stroke-miterlimit="10"/>
<path d="M264.394 603.06L236.848 618.75L242.086 651.843L276.963 631.105L264.394 603.06Z" fill="white"/>
<path d="M245.357 612.281L243.505 638.423L249.846 633.451L262.529 644.423L248.971 653.378L238.432 681.194L233.79 698.419C233.646 698.938 233.37 699.411 232.987 699.79C232.605 700.169 232.13 700.442 231.61 700.582C231.09 700.721 230.543 700.723 230.022 700.586C229.501 700.449 229.025 700.179 228.641 699.802C222.558 693.743 219.069 685.555 218.913 676.97C218.516 665.43 219.599 653.887 222.135 642.622L217.176 643.446L215.35 621.097L220.613 620.742C223.88 617.625 227.784 615.254 232.056 613.794C236.328 612.333 240.866 611.817 245.357 612.281Z" fill="#141D30"/>
<path d="M221.438 623.063L222.972 639.616" stroke="#496EB5" stroke-width="0.69" stroke-miterlimit="10"/>
<path d="M277.674 654.596C282.272 653.095 286.585 650.831 290.432 647.898L267.604 591.505L255.961 597.986L277.674 654.596Z" fill="#496EB5"/>
<path d="M98.3028 462.113C91.0357 458.131 106.027 423.11 106.027 423.11L118.709 428.551C118.709 428.551 105.621 466.122 98.3028 462.113Z" fill="#ABABAB"/>
<path d="M123.922 430.822L96.249 418.911C96.6853 416.349 96.492 413.719 95.6855 411.249C94.879 408.778 93.4836 406.541 91.6198 404.73C88.9816 402.286 86.2127 399.987 83.3254 397.843L80.4845 400.481L85.38 406.303L85.2404 413.698H71.8222L56.2099 408.878L55.0558 412.62L53.2676 411.732L51.3145 417.173L54.6246 419.139L53.09 423.059L59.8752 427.968L67.358 429.566L58.886 429.655L54.0666 426.712L53.09 429.731L59.1523 433.219C68.4991 436.46 78.5619 437.044 88.2209 434.906L113.459 456.253L123.922 430.822Z" fill="#FF8C8C"/>
<path d="M113.459 456.215L123.922 430.847L102.361 421.575C104.226 429.02 104.2 437.455 102.894 447.336L113.459 456.215Z" fill="#D45151"/>
<path d="M100.801 482.446C94.4597 478.996 104.213 460.071 104.213 460.071L124.758 468.836C124.758 468.836 107.802 486.239 100.801 482.446Z" fill="#141D30"/>
<path d="M128.627 432.153L113.281 426.141C113.281 426.141 108.88 458.194 98.3027 462.113L128.627 481.203V432.153Z" fill="white"/>
<path d="M204.19 504.567C204.819 503.931 205.285 503.152 205.547 502.297C177.962 493.126 151.786 501.32 143.402 520.182C159.801 532.688 191.038 518.647 204.19 504.567Z" fill="#141D30"/>
<path d="M224.38 338.557L242.935 420.776L219.929 483.461C217.714 489.49 214.264 494.99 209.802 499.61C205.339 504.229 199.961 507.866 194.013 510.287C188.064 512.709 181.675 513.861 175.255 513.671C168.836 513.481 162.526 511.953 156.731 509.184L100.801 482.446C100.801 482.446 114.358 486.01 128.626 432.153L166.788 448.554L208.159 370.432C208.159 370.432 208.134 356.632 224.38 338.557Z" fill="#26395E"/>
<path d="M115.791 467.771L156.566 487.799" stroke="#141D30" stroke-width="0.76" stroke-miterlimit="10"/>
<path d="M129.159 467.466C130.686 467.466 131.924 466.228 131.924 464.701C131.924 463.174 130.686 461.936 129.159 461.936C127.632 461.936 126.395 463.174 126.395 464.701C126.395 466.228 127.632 467.466 129.159 467.466Z" fill="#DEDEDE"/>
<path d="M147.891 473.326C147.891 473.873 147.729 474.408 147.425 474.862C147.121 475.317 146.689 475.672 146.184 475.881C145.679 476.09 145.123 476.145 144.587 476.038C144.05 475.932 143.558 475.668 143.171 475.281C142.784 474.895 142.521 474.402 142.414 473.866C142.308 473.329 142.363 472.773 142.572 472.268C142.781 471.763 143.135 471.331 143.59 471.027C144.045 470.723 144.579 470.561 145.126 470.561C145.858 470.564 146.56 470.857 147.077 471.375C147.595 471.892 147.888 472.594 147.891 473.326Z" fill="#DEDEDE"/>
<path d="M166.789 448.554L191.279 459.5" stroke="#141D30" stroke-width="0.76" stroke-miterlimit="10"/>
<path d="M173.131 447.489L198.357 448.554" stroke="#141D30" stroke-width="0.76" stroke-miterlimit="10"/>
<path d="M230.139 364.077C228.503 369.456 224.736 385.463 228.084 410.463C228.525 413.562 228.252 416.721 227.285 419.698C221.426 437.189 225.687 453.628 228.224 460.858L242.936 420.776L230.139 364.077Z" fill="#141D30"/>
<path d="M55.0547 412.658L70.6543 418.239L76.1205 418.708" stroke="#D45151" stroke-miterlimit="10"/>
<path d="M54.623 419.177L65.0735 423.769L74.2811 424.594" stroke="#D45151" stroke-miterlimit="10"/>
<path d="M76.8951 416.514L73.5723 428.171" stroke="#D45151" stroke-miterlimit="10"/>
<path d="M76.0957 427.029C79.5327 424.365 85.8994 421.385 91.7207 425.253" stroke="#D45151" stroke-miterlimit="10"/>
<path d="M539.519 462.113C546.786 458.131 531.795 423.11 531.795 423.11L519.176 428.551C519.176 428.551 532.201 466.122 539.519 462.113Z" fill="#ABABAB"/>
<path d="M513.898 430.822L541.547 418.911C541.11 416.349 541.304 413.719 542.11 411.249C542.916 408.778 544.312 406.541 546.176 404.73C548.814 402.286 551.583 399.987 554.47 397.843L557.311 400.481L552.416 406.303L552.555 413.698H565.973L581.586 408.878L582.74 412.62L584.528 411.732L586.481 417.173L583.171 419.139L584.705 423.059L577.92 427.968L570.438 429.566L578.909 429.655L583.716 426.712L584.705 429.655L578.643 433.143C569.292 436.385 559.225 436.969 549.562 434.83L524.336 456.177L513.898 430.822Z" fill="#FF8C8C"/>
<path d="M524.362 456.215L513.898 430.847L535.459 421.575C533.595 429.02 533.62 437.455 534.913 447.336L524.362 456.215Z" fill="#D45151"/>
<path d="M537.019 482.446C543.36 478.996 533.607 460.071 533.607 460.071L513.049 468.836C513.049 468.836 530.044 486.239 537.019 482.446Z" fill="#141D30"/>
<path d="M509.193 432.153L524.539 426.141C524.539 426.141 528.94 458.194 539.517 462.113L509.193 481.203V432.153Z" fill="white"/>
<path d="M433.63 504.567C433.001 503.931 432.535 503.152 432.273 502.297C459.858 493.126 486.035 501.32 494.482 520.182C478.032 532.688 446.782 518.647 433.63 504.567Z" fill="#141D30"/>
<path d="M413.453 338.557L394.898 420.776L417.905 483.461C420.12 489.49 423.569 494.99 428.031 499.61C432.494 504.229 437.872 507.866 443.821 510.287C449.769 512.709 456.158 513.861 462.578 513.671C468.998 513.481 475.307 511.953 481.102 509.184L537.032 482.446C537.032 482.446 523.475 486.01 509.207 432.153L471.032 448.554L429.649 370.432C429.649 370.432 429.687 356.632 413.453 338.557Z" fill="#26395E"/>
<path d="M522.016 467.771L481.254 487.799" stroke="#141D30" stroke-width="0.76" stroke-miterlimit="10"/>
<path d="M508.661 467.466C510.188 467.466 511.426 466.228 511.426 464.701C511.426 463.174 510.188 461.936 508.661 461.936C507.134 461.936 505.896 463.174 505.896 464.701C505.896 466.228 507.134 467.466 508.661 467.466Z" fill="#DEDEDE"/>
<path d="M489.93 473.326C489.93 473.873 490.092 474.408 490.396 474.862C490.699 475.317 491.131 475.672 491.636 475.881C492.142 476.09 492.698 476.145 493.234 476.038C493.77 475.932 494.263 475.668 494.65 475.281C495.036 474.895 495.3 474.402 495.406 473.866C495.513 473.329 495.458 472.773 495.249 472.268C495.04 471.763 494.685 471.331 494.231 471.027C493.776 470.723 493.241 470.561 492.695 470.561C491.962 470.564 491.261 470.857 490.743 471.375C490.225 471.892 489.933 472.594 489.93 473.326Z" fill="#DEDEDE"/>
<path d="M471.031 448.554L446.541 459.5" stroke="#141D30" stroke-width="0.76" stroke-miterlimit="10"/>
<path d="M464.691 447.489L439.465 448.554" stroke="#141D30" stroke-width="0.76" stroke-miterlimit="10"/>
<path d="M407.682 364.077C409.318 369.456 413.084 385.463 409.723 410.463C409.293 413.563 409.57 416.72 410.535 419.698C416.395 437.189 412.133 453.628 409.597 460.858L394.885 420.776L407.682 364.077Z" fill="#141D30"/>
<path d="M582.766 412.658L567.166 418.239L561.688 418.708" stroke="#D45151" stroke-miterlimit="10"/>
<path d="M583.197 419.177L572.747 423.769L563.539 424.594" stroke="#D45151" stroke-miterlimit="10"/>
<path d="M560.914 416.514L564.25 428.171" stroke="#D45151" stroke-miterlimit="10"/>
<path d="M561.687 427.029C558.238 424.365 551.884 421.385 546.062 425.253" stroke="#D45151" stroke-miterlimit="10"/>
<path d="M333.718 288.619H318.866H304.002L302.455 316.448L318.866 326.076L335.265 316.448L333.718 288.619Z" fill="#FF8C8C"/>
<path d="M322.848 333.927H314.87L311.104 321.142H326.614L322.848 333.927Z" fill="#125EC9"/>
<path d="M324.51 307.963C328.015 307.867 331.465 307.069 334.656 305.616L333.705 288.594H304.002L303.533 297.054C305.998 300.319 309.16 302.993 312.789 304.88C316.418 306.767 320.422 307.82 324.51 307.963Z" fill="#D45151"/>
<path d="M299.709 284.887C302.851 283.261 303.873 278.997 301.993 275.364C300.113 271.73 296.043 270.103 292.901 271.729C289.76 273.355 288.737 277.618 290.617 281.252C292.497 284.885 296.568 286.512 299.709 284.887Z" fill="#D45151"/>
<path d="M292.65 277.242C293.551 273.284 297.863 272.891 301.427 277.445" stroke="#FF8C8C" stroke-width="0.71" stroke-miterlimit="10"/>
<path d="M335.721 275.364C333.844 278.992 334.872 283.254 338.017 284.878C341.162 286.501 345.221 284.878 347.11 281.25C349 277.622 347.96 273.36 344.815 271.724C341.67 270.088 337.599 271.724 335.721 275.364Z" fill="#D45151"/>
<path d="M345.067 277.242C344.167 273.284 339.868 272.891 336.291 277.445" stroke="#FF8C8C" stroke-width="0.71" stroke-miterlimit="10"/>
<path d="M338.855 267.373C337.575 265.915 336.631 264.194 336.088 262.331C335.544 260.469 335.415 258.51 335.709 256.592C335.772 256.201 335.749 255.801 335.642 255.42C335.534 255.039 335.346 254.685 335.089 254.384C334.833 254.082 334.514 253.84 334.154 253.674C333.795 253.508 333.404 253.421 333.008 253.421H304.713C304.32 253.422 303.931 253.508 303.574 253.673C303.217 253.837 302.899 254.077 302.643 254.375C302.386 254.674 302.197 255.024 302.088 255.402C301.98 255.78 301.953 256.177 302.012 256.566C302.306 258.484 302.177 260.443 301.633 262.306C301.09 264.168 300.146 265.889 298.866 267.348L297.104 269.352C298.296 294.086 312.792 299.553 318.867 299.553C324.942 299.553 339.425 294.086 340.618 269.352L338.855 267.373Z" fill="#FF8C8C"/>
<path d="M305.65 270.303C307.553 272.84 311.649 272.739 314.325 270.062" stroke="#142F61" stroke-width="0.75" stroke-miterlimit="10"/>
<path d="M304.18 264.481C305.774 263.506 307.606 262.99 309.475 262.99C311.343 262.99 313.176 263.506 314.77 264.481" stroke="#142F61" stroke-miterlimit="10"/>
<path d="M332.107 270.303C330.204 272.84 326.108 272.739 323.432 270.062" stroke="#142F61" stroke-width="0.75" stroke-miterlimit="10"/>
<path d="M333.553 264.481C331.959 263.506 330.127 262.99 328.258 262.99C326.389 262.99 324.557 263.506 322.963 264.481" stroke="#142F61" stroke-miterlimit="10"/>
<path d="M317.852 267.513V276.658L321.999 275.808" stroke="#D45151" stroke-miterlimit="10"/>
<path d="M311.75 279.601C311.75 279.601 317.343 283.406 325.967 279.601" stroke="#142F61" stroke-miterlimit="10"/>
<path d="M316.406 285.169H321.327" stroke="#D45151" stroke-miterlimit="10"/>
<path d="M316.938 321.142L311.624 332.481L294.414 319.543L298.866 311.4L316.938 321.142Z" fill="white"/>
<path d="M320.781 321.142L326.095 332.481L343.306 319.543L338.854 311.4L320.781 321.142Z" fill="white"/>
<path d="M322.848 333.927H314.871C314.871 333.927 315.531 355.566 321.834 366.982C333.083 387.353 357.865 383.154 364.156 392.553C370.446 401.952 377.244 416.336 407.201 411.935L425.514 393.974L406.49 385.171C406.49 385.171 393.529 390.651 384.93 380.897C376.331 371.143 369 368.048 357.028 368.415C345.056 368.783 325.284 362.111 322.848 333.927Z" fill="#125EC9"/>
<path d="M324.028 341.55C323.451 339.045 323.057 336.502 322.848 333.94H314.871C314.871 333.94 314.871 334.194 314.871 334.638C318.211 336.534 321.289 338.858 324.028 341.55Z" fill="#0E4899"/>
</g>
<g clip-path="url(#clip1_208_13)">
<path d="M79 900H280.022C279.747 870.726 247.077 842.481 209.245 842.619C207.799 816.605 182.403 791.815 148.779 800.508C137.419 775.009 109.45 755.391 79 756V900Z" fill="white"/>
<path d="M79 900H237.699C237.294 883.701 212.824 867.561 186.019 867.561C174.608 840.837 151.874 833.571 122.588 838.866C112.386 816.395 90.5696 813.577 79 813.787V900Z" fill="#E8F0FF"/>
</g>
<g clip-path="url(#clip2_208_13)">
<path d="M665 0L454.977 0C455.264 30.4935 489.397 59.9155 528.923 59.7721C530.434 86.8699 556.967 112.692 592.096 103.637C603.965 130.199 633.187 150.634 665 150V0Z" fill="white"/>
<path d="M665 7.62939e-06L499.195 7.62939e-06C499.618 16.9786 525.184 33.7911 553.189 33.7911C565.111 61.6284 588.863 69.1971 619.46 63.681C630.12 87.0887 652.912 90.0242 665 89.8053V7.62939e-06Z" fill="#E8F0FF"/>
</g>
<defs>
<clipPath id="clip0_208_13">
<rect width="632" height="520" fill="white" transform="translate(0 190)"/>
</clipPath>
<clipPath id="clip1_208_13">
<rect width="201" height="144" fill="white" transform="translate(79 756)"/>
</clipPath>
<clipPath id="clip2_208_13">
<rect width="210" height="150" fill="white" transform="matrix(-1 0 0 -1 665 150)"/>
</clipPath>
</defs>
</svg>
